<svg width="179" height="28" viewBox="0 0 179 28" fill="none" xmlns="http://www.w3.org/2000/svg">
<g clip-path="url(#clip0_15490_14262)">
<path d="M84.8327 11.5041C83.2831 11.5041 81.8665 11.5117 80.4499 11.4929C80.3312 11.4929 80.191 11.3315 80.1047 11.2076C80.022 11.0913 79.9825 10.9374 79.9393 10.791C79.4827 9.22586 78.53 8.29503 76.9156 8.22372C75.1467 8.14865 73.687 8.97063 73.0829 10.5846C72.3063 12.6527 72.2991 14.7883 73.0542 16.8827C74.2047 20.0655 77.7102 20.3133 79.756 19.206C81.0323 18.5154 82.0283 17.4832 82.7905 16.2371C85.1095 12.45 87.3998 8.64409 89.6792 4.83069C89.9417 4.39154 90.2293 4.22264 90.7219 4.23015C92.4944 4.25642 94.267 4.25642 96.0395 4.23015C96.5393 4.22264 96.7226 4.37278 96.719 4.92077C96.7046 10.9674 96.701 17.0141 96.719 23.0607C96.719 23.6312 96.5321 23.8302 96.0143 23.8226C94.8998 23.8114 93.7888 23.8114 92.6742 23.8264C92.2643 23.8339 92.1349 23.6425 92.1421 23.2409C92.1529 22.4452 92.1205 21.6495 92.1313 20.8537C92.1385 20.3921 91.9695 20.2044 91.5093 20.2082C89.7799 20.2232 88.0469 20.2344 86.3176 20.1894C85.656 20.1706 85.1778 20.4259 84.7464 20.9025C83.8619 21.8822 82.8732 22.7417 81.6579 23.2221C78.0446 24.6521 74.5103 24.6484 71.2241 22.295C69.3437 20.9476 68.4125 18.9245 67.9703 16.6312C67.4741 14.0527 67.6072 11.5267 68.6354 9.11326C70.07 5.75776 72.6479 4.11004 76.1031 3.86608C77.4765 3.76849 78.8212 3.93739 80.1083 4.47036C82.4094 5.42372 83.7612 7.25535 84.4408 9.67626C84.5954 10.228 84.6817 10.7985 84.8291 11.5004L84.8327 11.5041ZM92.063 9.20334C91.8329 9.4323 91.7071 9.51487 91.6387 9.63122C90.4055 11.6918 89.1831 13.7599 87.9535 15.8243C87.6838 16.2784 87.9067 16.3948 88.3094 16.3948C89.3413 16.3948 90.3696 16.3722 91.4014 16.406C91.9623 16.421 92.1673 16.2071 92.1565 15.6141C92.1277 13.7411 92.1421 11.872 92.1313 9.99905C92.1313 9.79262 92.0989 9.58994 92.063 9.20334Z" fill="#6B7280" fill-opacity="0.7"/>
<path d="M23.3626 21.5368C23.3626 19.7352 23.3194 18.0387 23.3949 16.346C23.4129 15.9669 23.8228 15.5953 24.0745 15.2387C25.0057 13.9025 26.0016 12.6151 26.8609 11.2301C27.6986 9.88269 28.1121 8.34757 28.2631 6.73738C28.45 4.71433 27.0982 2.78886 25.0488 2.19958C22.7478 1.53524 20.497 1.88055 18.3075 2.65749C12.7382 4.63551 8.12172 8.0473 4.56947 12.9604C3.34345 14.657 2.45539 16.5449 2.20371 18.7031C2.19292 18.8082 2.17135 18.917 2.16056 19.0221C1.92327 21.6419 3.52681 22.9669 5.91774 22.1149C7.15096 21.6757 8.16127 20.8612 9.10685 19.9529C11.8358 17.3331 14.0973 14.2891 16.2725 11.1776C17.3655 9.61621 18.383 7.99476 19.4364 6.40334C19.5371 6.2532 19.6485 6.11057 19.8355 5.8591C19.8535 6.1969 19.875 6.40334 19.875 6.60602C19.875 12.2436 19.875 17.8811 19.8858 23.5149C19.8858 23.9953 19.778 24.2993 19.3429 24.5395C16.7866 25.9583 14.1548 27.1669 11.2821 27.6886C8.73293 28.1503 6.19818 28.2478 3.7713 27.0655C0.78353 25.6055 -0.269919 22.8993 0.0572615 19.7503C0.459945 15.858 2.40865 12.7277 4.84991 9.91272C8.54238 5.65267 12.9899 2.5524 18.2931 0.88591C20.6409 0.150253 23.0426 -0.258862 25.4874 0.176527C28.3062 0.679476 30.6324 1.94811 31.5025 5.06714C32.0454 7.01138 31.8045 8.95186 31.1789 10.836C29.7408 15.1637 26.9651 18.4704 23.6826 21.3717C23.625 21.4242 23.5423 21.443 23.3626 21.5331V21.5368Z" fill="#6B7280" fill-opacity="0.7"/>
<path d="M174.516 14.6939C174.516 14.4462 174.516 14.1985 174.516 13.9508C174.519 10.9819 174.537 8.01297 174.516 5.04406C174.512 4.44353 174.649 4.19581 175.267 4.22959C176.252 4.27838 177.245 4.27463 178.233 4.22959C178.837 4.20331 179.003 4.43227 179.003 5.04406C178.985 10.1636 178.992 15.2832 178.992 20.4028C178.992 21.2848 178.967 22.1669 178.999 23.0489C179.021 23.6232 178.801 23.7996 178.273 23.7883C177.162 23.7583 176.047 23.7658 174.936 23.7883C174.537 23.7958 174.293 23.6419 174.088 23.2854C172.218 20.0199 170.338 16.7583 168.457 13.5004C168.314 13.2489 168.145 13.0087 167.843 12.7835C167.821 13.0199 167.785 13.2526 167.785 13.4891C167.782 16.6719 167.767 19.8548 167.789 23.0414C167.792 23.6569 167.627 23.8746 167.026 23.8484C165.955 23.8033 164.884 23.8221 163.812 23.8408C163.381 23.8484 163.244 23.6795 163.244 23.2366C163.255 17.1073 163.255 10.9744 163.244 4.84514C163.244 4.40224 163.381 4.23709 163.812 4.2446C165.027 4.26712 166.243 4.28213 167.458 4.2446C167.986 4.22583 168.274 4.43602 168.533 4.89018C170.291 7.97543 172.071 11.0457 173.851 14.1197C173.984 14.3486 174.145 14.5551 174.296 14.7728C174.368 14.7502 174.44 14.7277 174.512 14.7052L174.516 14.6939Z" fill="#6B7280" fill-opacity="0.7"/>
<path d="M152.963 24.1792C149.195 24.1266 146.419 22.918 144.561 19.8928C143.248 17.7572 142.979 15.3626 143.126 12.8928C143.241 10.9636 143.82 9.18829 144.899 7.60813C146.43 5.36362 148.613 4.25638 151.165 3.9336C153.646 3.62207 156.008 4.04995 158.13 5.52877C159.755 6.66228 160.837 8.23869 161.394 10.1642C162.271 13.2044 162.243 16.2296 160.887 19.1422C159.69 21.7132 157.673 23.2296 155.045 23.8676C154.229 24.0666 153.38 24.1191 152.963 24.1792ZM157.184 14.0789C157.098 13.3357 157.062 12.5813 156.918 11.8494C156.526 9.84137 155.07 8.44888 153.204 8.23869C151.021 7.99472 149.303 8.89177 148.476 10.8285C147.57 12.9642 147.627 15.1561 148.512 17.273C149.209 18.9432 150.554 19.7352 152.298 19.7765C154.132 19.8215 155.602 19.1609 156.494 17.3969C157.015 16.3609 157.173 15.2424 157.18 14.0752L157.184 14.0789Z" fill="#6B7280" fill-opacity="0.7"/>
<path d="M37.3053 13.9927C37.3053 11.0013 37.3161 8.00988 37.2945 5.01846C37.2909 4.44795 37.4383 4.22275 38.0244 4.23401C40.3937 4.26779 42.7703 4.15895 45.1324 4.28656C47.9656 4.43669 50.3817 5.60023 51.9745 8.16377C53.4306 10.5059 53.7434 13.122 53.3767 15.8469C53.0603 18.2152 52.1219 20.2421 50.3134 21.7697C48.8896 22.9745 47.2357 23.6276 45.4273 23.7064C42.9788 23.8115 40.5231 23.7815 38.0711 23.8415C37.4814 23.8565 37.2801 23.6539 37.2873 23.0308C37.3125 20.0169 37.2981 17.0067 37.2981 13.9927H37.3053ZM43.5577 19.6603C43.9891 19.6303 44.4205 19.6002 44.852 19.574C46.5526 19.4764 47.6312 18.5005 48.2388 16.9128C48.9615 15.0362 48.8932 13.1257 48.2964 11.2378C47.8182 9.72892 46.8007 8.76056 45.3086 8.46779C44.4889 8.3064 43.6296 8.37771 42.7882 8.32141C42.1662 8.28013 41.9829 8.55412 41.9901 9.19219C42.0152 12.1386 41.9901 15.085 42.0008 18.0276C42.008 19.7654 41.7168 19.6265 43.5577 19.6565V19.6603Z" fill="#6B7280" fill-opacity="0.7"/>
<path d="M113.679 13.9695C113.679 10.9781 113.693 7.98665 113.668 4.99899C113.664 4.40596 113.833 4.21078 114.401 4.2333C115.473 4.27459 116.544 4.27834 117.616 4.2333C118.234 4.20703 118.382 4.4585 118.374 5.05529C118.349 6.99202 118.364 8.92875 118.374 10.8655C118.374 11.7025 118.414 11.7363 119.216 11.74C120.949 11.74 122.678 11.725 124.411 11.7513C124.983 11.7588 125.166 11.5298 125.159 10.9518C125.137 8.95127 125.166 6.95073 125.145 4.95019C125.141 4.42472 125.296 4.2258 125.813 4.24081C126.946 4.27459 128.082 4.27084 129.214 4.24081C129.685 4.22955 129.815 4.41722 129.815 4.88263C129.804 10.9518 129.804 17.0172 129.815 23.0864C129.815 23.6194 129.639 23.807 129.132 23.7958C128.021 23.7695 126.906 23.7695 125.792 23.7958C125.31 23.807 125.141 23.6231 125.145 23.1202C125.159 20.992 125.145 18.8601 125.134 16.7282C125.13 15.8499 125.083 15.8049 124.264 15.8011C122.552 15.7936 120.841 15.8124 119.133 15.7936C118.608 15.7899 118.414 15.985 118.414 16.548C118.421 18.7212 118.371 20.8944 118.378 23.0676C118.378 23.6531 118.209 23.8746 117.634 23.8483C116.544 23.7958 115.451 23.7808 114.358 23.7883C113.855 23.792 113.682 23.6156 113.686 23.0789C113.708 20.0462 113.697 17.0097 113.697 13.977C113.693 13.977 113.69 13.977 113.686 13.977L113.679 13.9695Z" fill="#6B7280" fill-opacity="0.7"/>
<path d="M54.7802 14.0296C54.7802 11.0381 54.7982 8.05046 54.7658 5.05904C54.7586 4.39845 54.96 4.2258 55.5748 4.22955C59.2636 4.25958 62.9525 4.26333 66.6414 4.23706C67.2382 4.2333 67.436 4.41722 67.4036 5.04028C67.3605 5.89979 67.3748 6.76306 67.4072 7.61883C67.4288 8.13679 67.231 8.28692 66.76 8.28692C64.5776 8.28692 62.3916 8.33196 60.2092 8.31695C59.6052 8.3132 59.411 8.54215 59.4434 9.14644C59.4794 9.89711 59.4758 10.6515 59.4434 11.406C59.4218 11.9765 59.6519 12.1566 60.1769 12.1491C62.0321 12.1304 63.8873 12.1604 65.7389 12.1304C66.2854 12.1228 66.5263 12.2655 66.4868 12.8848C66.4364 13.6542 66.4436 14.4349 66.4868 15.2081C66.5155 15.7674 66.3466 15.9588 65.7929 15.9513C63.9376 15.9212 62.0824 15.9588 60.2308 15.9287C59.6519 15.9175 59.4003 16.0901 59.4434 16.7245C59.4866 17.325 59.4506 17.9293 59.4542 18.5298C59.4542 19.248 59.791 19.6083 60.4645 19.6108C62.3593 19.6145 64.2576 19.6108 66.1524 19.6333C67.6229 19.6521 67.3712 19.5019 67.4 20.9507C67.4144 21.7014 67.3892 22.4558 67.4 23.2102C67.4072 23.5931 67.2634 23.7507 66.8966 23.7545C63.0424 23.7733 59.1917 23.792 55.3375 23.8258C54.7658 23.8296 54.7838 23.4655 54.7838 23.0564C54.7838 20.0462 54.7838 17.0322 54.7838 14.022L54.7802 14.0296Z" fill="#6B7280" fill-opacity="0.7"/>
<path d="M102.911 16.0752C102.911 13.7519 102.893 11.4286 102.922 9.10525C102.929 8.47844 102.72 8.26074 102.138 8.27576C101.027 8.30203 99.9122 8.26825 98.8012 8.29077C98.3158 8.30203 98.0821 8.16316 98.1073 7.60015C98.1433 6.69935 98.1325 5.79479 98.1073 4.89023C98.0965 4.43983 98.2044 4.2334 98.6898 4.2334C103.037 4.24841 107.383 4.24466 111.73 4.2334C112.147 4.2334 112.327 4.36852 112.316 4.82643C112.295 5.77227 112.295 6.71812 112.316 7.66396C112.327 8.16316 112.108 8.29077 111.68 8.28326C110.63 8.26825 109.58 8.27576 108.527 8.27951C107.596 8.27951 107.588 8.28702 107.588 9.24037C107.588 13.7557 107.588 18.2747 107.588 22.79C107.588 23.4781 107.264 23.8221 106.614 23.8221C105.625 23.8221 104.637 23.8071 103.648 23.8221C103.108 23.8296 102.893 23.6457 102.9 23.0339C102.932 20.7106 102.914 18.3873 102.914 16.064L102.911 16.0752Z" fill="#6B7280" fill-opacity="0.7"/>
<path d="M131.335 14.0409C131.335 11.0269 131.349 8.01676 131.324 5.00282C131.321 4.4173 131.479 4.21086 132.051 4.23338C133.14 4.27467 134.237 4.27842 135.326 4.23338C135.919 4.20711 136.041 4.44732 136.041 5.01408C136.023 9.59692 136.034 14.1798 136.041 18.7626C136.041 19.7235 136.045 19.7272 136.969 19.731C138.885 19.7385 140.802 19.7535 142.718 19.731C143.254 19.7235 143.459 19.8849 143.426 20.4629C143.372 21.3637 143.369 22.2682 143.369 23.1728C143.369 23.6232 143.182 23.7696 142.768 23.7696C139.162 23.7846 135.556 23.8034 131.95 23.8371C131.447 23.8409 131.331 23.6232 131.331 23.1428C131.346 20.1101 131.339 17.0736 131.339 14.0409H131.335Z" fill="#6B7280" fill-opacity="0.7"/>
</g>
<defs>
<clipPath id="clip0_15490_14262">
<rect width="179" height="28" fill="white"/>
</clipPath>
</defs>
</svg>
