<svg width="144" height="33" viewBox="0 0 144 33" fill="none" xmlns="http://www.w3.org/2000/svg">
<g clip-path="url(#clip0_15490_14517)">
<path d="M16.6973 32.8957C16.5923 32.8138 16.4799 32.7393 16.3899 32.6424C11.0665 27.3758 5.74321 22.1018 0.419869 16.8352C0.314902 16.7309 0.164948 16.6788 0 16.5745C0.70478 15.8817 1.29709 15.2932 1.88941 14.7047C6.74039 9.90745 11.5914 5.10271 16.4424 0.290519C16.6523 0.0893905 16.8547 0 17.1546 0C27.8688 0 38.5904 0 49.3046 0.00744921C49.477 0.00744921 49.657 0.0819413 49.8294 0.119187C49.717 0.178781 49.582 0.216027 49.4995 0.297968C47.4452 2.33905 45.3983 4.38759 43.3515 6.43612C40.1125 9.67652 36.866 12.9169 33.6195 16.1499C33.5295 16.2467 33.3871 16.2914 33.2296 16.3808C38.7854 21.9379 44.2362 27.3758 49.6795 32.8212C49.7095 32.8063 49.7395 32.7914 49.7694 32.7765V32.2774C49.7694 21.7293 49.7694 11.1738 49.7694 0.625734C49.7694 0.454402 49.7994 0.290519 49.8144 0.119187C50.8641 1.13973 51.9138 2.16027 52.9559 3.18826C57.3121 7.49391 61.6607 11.807 66.0094 16.1126C66.1293 16.2318 66.2643 16.3361 66.4517 16.5C66.0918 16.8352 65.7769 17.1257 65.4695 17.4237C60.791 22.0497 56.12 26.6831 51.4489 31.3165C50.9391 31.8156 50.4367 32.3221 49.9194 32.8138C49.8144 32.9106 49.6495 32.9479 49.507 32.9926C49.4395 33.0149 49.3571 32.9926 49.2821 32.9926C38.6054 32.9926 27.9213 32.9926 17.2446 32.9926C17.0572 32.9926 16.8697 32.9255 16.6823 32.8883C16.8022 32.8138 16.9372 32.7616 17.0347 32.6648C18.2268 31.4729 19.4189 30.2736 20.6111 29.0817C24.4798 25.2156 28.3561 21.3494 32.2249 17.4833C32.5323 17.1704 32.8397 16.8576 33.1546 16.5298C27.6888 11.0546 22.253 5.62415 16.8097 0.18623C16.7798 0.201129 16.7498 0.216027 16.7198 0.230926V0.692777C16.7198 11.2558 16.7198 21.8187 16.7198 32.3892C16.7198 32.5605 16.7048 32.7318 16.6973 32.9032V32.8957Z" fill="#DB0011"/>
<path d="M110.305 25.812V6.94313C110.41 6.92823 110.485 6.89844 110.567 6.89844C113.491 6.91334 116.415 6.89844 119.339 6.95803C120.442 6.98038 121.514 7.27835 122.488 7.82959C124.168 8.79054 124.91 10.258 124.828 12.1501C124.753 13.923 123.688 14.9883 122.166 15.7034C121.941 15.8077 121.709 15.8896 121.386 16.0237C121.671 16.1131 121.859 16.1727 122.046 16.2248C124.19 16.8357 125.405 18.2138 125.525 20.1729C125.667 22.4002 124.573 24.1732 122.556 25.0447C121.326 25.5736 120.029 25.8045 118.702 25.8194C116.01 25.8492 113.326 25.8269 110.635 25.8269C110.537 25.8269 110.44 25.812 110.305 25.7971V25.812ZM114.398 17.5136C114.398 19.3014 114.398 20.9774 114.406 22.6535C114.406 22.7355 114.563 22.8919 114.646 22.8919C116.115 22.8546 117.6 22.9217 119.047 22.7206C120.389 22.5343 121.086 21.5063 121.064 20.2102C121.049 18.8768 120.329 17.9009 118.949 17.7221C117.472 17.5285 115.958 17.5732 114.398 17.5061V17.5136ZM114.421 14.7425C115.725 14.7425 116.963 14.802 118.192 14.7276C119.519 14.6456 120.479 13.6698 120.546 12.5002C120.614 11.219 119.917 10.2655 118.485 10.0644C117.158 9.87812 115.8 9.92282 114.421 9.86322V14.7425Z" fill="black"/>
<path d="M77.9074 14.5933H85.9823V6.94299H90.181V25.7969H86.0273V17.9082C85.8024 17.9082 85.6374 17.9082 85.4725 17.9082C83.1407 17.9082 80.8015 17.9231 78.4697 17.9008C78.0048 17.9008 77.9074 18.0423 77.9149 18.4744C77.9373 20.7091 77.9224 22.9439 77.9224 25.1861C77.9224 25.3872 77.9224 25.5809 77.9224 25.8118H73.7387C73.7312 25.6107 73.7162 25.4319 73.7162 25.2532C73.7162 19.331 73.7162 13.4164 73.7012 7.49424C73.7012 6.99514 73.8511 6.87595 74.331 6.89085C75.4931 6.9281 76.6627 6.8983 77.9074 6.8983V14.5933Z" fill="black"/>
<path d="M107.441 12.1947H103.309C103.197 11.8222 103.099 11.4646 102.987 11.122C102.8 10.5707 102.425 10.1759 101.922 9.88541C100.805 9.24477 98.9757 9.38631 97.986 10.2057C96.8389 11.1443 97.0113 12.9098 98.3909 13.4536C99.9429 14.0719 101.57 14.489 103.144 15.0477C104.127 15.3978 105.131 15.7405 106.016 16.2768C108.73 17.9008 108.708 21.8265 106.796 23.8229C105.281 25.4096 103.339 26.0129 101.24 26.2066C99.1032 26.4003 97.0038 26.229 95.1144 25.0669C93.24 23.9123 92.5202 22.1543 92.4902 20.0089C92.6177 19.9865 92.7152 19.9567 92.8126 19.9567C93.9823 19.9567 95.1519 19.9567 96.314 19.9567C96.554 19.9567 96.7414 19.9791 96.7639 20.2845C96.9888 22.8545 99.1257 23.4653 101.128 23.0556C101.735 22.929 102.372 22.6459 102.844 22.266C104.119 21.2306 103.834 19.4278 102.327 18.7947C101.615 18.4967 100.843 18.3328 100.108 18.087C98.7133 17.6251 97.2887 17.2303 95.9392 16.6567C94.1322 15.8895 92.9776 14.5561 92.8876 12.5075C92.7901 10.4143 93.6749 8.83507 95.4818 7.76983C97.3487 6.66735 99.3956 6.45132 101.51 6.6152C102.927 6.72694 104.292 7.03236 105.476 7.86667C106.961 8.91701 107.478 10.4143 107.448 12.2021L107.441 12.1947Z" fill="black"/>
<path d="M139.682 20.2021H143.955C143.985 21.0513 143.738 21.8111 143.401 22.5412C142.756 23.9342 141.684 24.9249 140.274 25.4985C137.387 26.668 134.478 26.5563 131.644 25.3346C129.605 24.4556 128.375 22.8168 127.753 20.7385C126.981 18.1536 126.921 15.5389 127.611 12.9242C128.578 9.25922 131.314 6.93507 135.108 6.57005C136.93 6.39872 138.73 6.51791 140.424 7.30753C142.441 8.24613 143.648 9.80301 143.978 12.008C143.993 12.1272 144 12.2389 144.008 12.3581C144.008 12.4251 143.993 12.4847 143.985 12.5816H139.734C139.397 11.9409 139.179 11.2854 138.767 10.7938C137.672 9.49759 135.438 9.4082 133.909 10.5181C132.971 11.196 132.387 12.1346 132.042 13.2147C131.322 15.4421 131.329 17.6843 132.064 19.9041C132.784 22.057 134.418 23.1743 136.593 23.0179C137.98 22.9211 138.939 22.2432 139.434 20.9396C139.524 20.7012 139.599 20.4628 139.697 20.1947L139.682 20.2021Z" fill="black"/>
</g>
<defs>
<clipPath id="clip0_15490_14517">
<rect width="144" height="33" fill="white"/>
</clipPath>
</defs>
</svg>
