<svg width="55" height="29" viewBox="0 0 55 29" fill="none" xmlns="http://www.w3.org/2000/svg">
<g clip-path="url(#clip0_15490_14523)">
<path d="M6.97356 10.0132C6.78095 10.4615 6.57655 10.9098 6.39966 11.362C5.869 12.7307 5.51129 14.1351 5.60956 15.6228C5.70784 17.0906 6.26208 18.3363 7.42167 19.2646C8.22749 19.9073 9.15516 20.2604 10.1615 20.427C11.435 20.6373 12.6811 20.5024 13.9193 20.1612C17.2684 19.2369 20.6214 18.3284 23.9704 17.408C25.924 16.8724 27.8776 16.3408 29.8313 15.8053C30.6567 15.5791 31.4861 15.353 32.3116 15.1269C32.3548 15.115 32.3942 15.1031 32.4335 15.0713H27.4767C27.4256 13.0005 27.3706 10.9375 27.3195 8.87858C27.3077 8.87858 27.2959 8.87462 27.288 8.87065C27.1976 9.10075 27.1111 9.33084 27.0207 9.56094C26.3525 11.3343 25.6882 13.1076 25.0278 14.8849C24.9728 15.0277 24.9099 15.0753 24.7566 15.0753C23.7149 15.0674 22.6772 15.0713 21.6355 15.0713C21.5765 15.0713 21.5137 15.0713 21.435 15.0713C21.4508 15.0118 21.4547 14.9722 21.4704 14.9325C22.6536 11.7151 23.8407 8.5017 25.0278 5.28433C25.6567 3.57845 26.2857 1.87653 26.9067 0.166682C26.9539 0.0436998 27.005 -0.00390625 27.1426 -0.00390625C28.2157 0.00402809 29.2888 -0.00390625 30.3619 -0.00390625C30.413 -0.00390625 30.4602 6.09183e-05 30.5427 0.00402809C29.9846 1.47981 29.4382 2.93973 28.8879 4.39965L28.9154 4.41552C29.0137 4.2965 29.1119 4.18146 29.2102 4.06244C30.2597 2.77708 31.3093 1.49568 32.3509 0.206354C32.4806 0.0595684 32.6104 6.09183e-05 32.8108 6.09183e-05C36.2267 0.00799525 39.6387 0.00402809 43.0545 0.00402809C43.1253 0.00402809 43.196 0.00402809 43.2943 0.00402809C43.1685 0.345205 43.0506 0.654644 42.9327 0.96805C42.7558 1.43618 42.571 1.9043 42.402 2.37639C42.3588 2.49144 42.3037 2.52715 42.1858 2.52715C41.1009 2.52318 40.016 2.52715 38.9311 2.52715C38.8368 2.52715 38.7699 2.53508 38.7306 2.64616C38.3769 3.62605 38.0152 4.60594 37.6575 5.58187C37.6497 5.60567 37.6418 5.63344 37.63 5.68105H40.9909C40.9712 5.74849 40.9633 5.79609 40.9476 5.83973C40.6332 6.69267 40.3148 7.54165 40.0003 8.39459C39.961 8.49774 39.902 8.50567 39.8116 8.50567C38.7896 8.50567 37.7637 8.50567 36.7416 8.5017C36.6119 8.5017 36.553 8.53741 36.5058 8.66436C36.1049 9.76326 35.696 10.8622 35.2912 11.9611C35.2715 12.0166 35.2519 12.0761 35.2283 12.1515H39.3281C39.1905 12.5482 39.0608 12.9172 38.9232 13.3139C39.053 13.2821 39.1591 13.2583 39.2652 13.2266C41.8596 12.5165 44.4539 11.8103 47.0443 11.1002C49.5404 10.4178 52.0365 9.73152 54.5365 9.05314C54.6426 9.02537 54.7527 9.0095 54.8627 9.00553C54.9099 9.00553 54.9924 9.04124 54.9964 9.06901C55.0042 9.11661 54.9728 9.18802 54.9335 9.22373C54.8784 9.2753 54.8077 9.31497 54.7369 9.34671C52.0247 10.5369 49.3085 11.727 46.5962 12.9132C43.821 14.1271 41.0498 15.3451 38.2747 16.559C35.869 17.6103 33.4633 18.6577 31.0577 19.709C28.1174 20.9903 25.1811 22.2797 22.2409 23.5531C19.5286 24.7314 16.8163 25.9057 14.0923 27.0601C12.7204 27.6433 11.3328 28.1828 9.89023 28.5557C8.63629 28.881 7.36664 29.0794 6.06554 28.9723C4.08834 28.8057 2.38629 28.04 1.04982 26.5365C0.405162 25.8105 0.11035 24.9178 0.0238724 23.9538C-0.074398 22.8589 0.118212 21.7957 0.424816 20.7523C0.794313 19.4987 1.3289 18.3165 1.94604 17.1739C3.3179 14.6349 5.01601 12.3221 6.85563 10.1124C6.88708 10.0727 6.92246 10.041 6.9539 10.0053C6.95784 10.0092 6.9657 10.0132 6.96963 10.0172L6.97356 10.0132ZM30.9791 13.9645C30.9791 13.9645 31.0026 13.9724 31.0144 13.9724C32.689 9.45382 34.3674 4.93522 36.042 0.416614L36.0026 0.384876C35.9673 0.428515 35.9358 0.472154 35.9004 0.511826C34.2259 2.36846 32.5514 4.22906 30.8729 6.0857C30.7865 6.18091 30.7589 6.27215 30.7629 6.3991C30.8022 7.55355 30.8336 8.708 30.869 9.86244C30.9083 11.2311 30.9437 12.5958 30.983 13.9645H30.9791Z" fill="black"/>
<path d="M16.8045 0.0159947C16.663 2.22571 16.5255 4.41955 16.3839 6.6134C16.3918 6.6134 16.3997 6.61736 16.4075 6.62133C16.4233 6.58959 16.4429 6.56182 16.4547 6.53008C17.2448 4.40368 18.0349 2.27728 18.825 0.150878C18.8604 0.0596335 18.8918 0.000126023 19.0058 0.00409319C20.1025 0.00806036 21.1953 0.00409319 22.292 0.00409319C22.3195 0.00409319 22.347 0.00806036 22.3981 0.0120275C22.3745 0.0834366 22.3588 0.142944 22.3352 0.202452C21.6788 1.97578 21.0223 3.74513 20.3659 5.51846C19.6819 7.35922 18.9979 9.19602 18.3179 11.0328C17.8423 12.3182 17.3627 13.6035 16.891 14.8889C16.836 15.0357 16.7692 15.0754 16.6159 15.0754C15.4799 15.0674 14.3478 15.0754 13.2118 15.0754C13.1528 15.0754 13.0938 15.0754 13.0113 15.0754C13.1528 12.8974 13.2943 10.7353 13.4319 8.57714C13.4201 8.57318 13.4122 8.56921 13.4005 8.56524C13.3769 8.61285 13.3533 8.66045 13.3336 8.71203C12.5986 10.6996 11.8635 12.6832 11.1324 14.6707C10.983 15.0754 10.9869 15.0754 10.5624 15.0754C9.59542 15.0754 8.62451 15.0754 7.65753 15.0754H7.45312C7.54353 14.8294 7.62215 14.6072 7.7047 14.3851C8.7503 11.5763 9.79589 8.7636 10.8376 5.95485C11.553 4.0268 12.2684 2.09876 12.9838 0.170714C13.0192 0.0794694 13.0388 0.00409319 13.1685 0.00409319C14.3399 0.00806036 15.5152 0.00409319 16.6866 0.00409319C16.7141 0.00409319 16.7416 0.00806036 16.7967 0.0159947H16.8045Z" fill="black"/>
<path d="M17.2754 15.0594C17.5152 14.4088 17.7471 13.778 17.9829 13.1472C18.5686 11.5643 19.1583 9.9814 19.7479 8.3985C20.648 5.97456 21.5482 3.55062 22.4483 1.12668C22.5741 0.793434 22.6999 0.460192 22.8178 0.122982C22.8493 0.0357045 22.8925 0 22.9869 0C24.0875 0 25.1881 0 26.2888 0C26.3163 0 26.3438 0.00793434 26.391 0.0119015C26.2652 0.361012 26.1433 0.698222 26.0175 1.03543C25.2785 3.01902 24.5395 5.0026 23.8045 6.99015C22.9358 9.33078 22.0671 11.6714 21.1983 14.0081C21.0804 14.3215 20.9704 14.6389 20.8485 14.9483C20.8288 14.9999 20.7542 15.0633 20.7031 15.0633C19.5906 15.0713 18.4782 15.0673 17.3658 15.0673C17.3461 15.0673 17.3226 15.0594 17.2793 15.0554L17.2754 15.0594Z" fill="black"/>
</g>
<defs>
<clipPath id="clip0_15490_14523">
<rect width="55" height="29" fill="white"/>
</clipPath>
</defs>
</svg>
