<svg width="117" height="48" viewBox="0 0 117 48" fill="none" xmlns="http://www.w3.org/2000/svg">
<g clip-path="url(#clip0_15490_14581)">
<path d="M60.1485 20.906H62.6238V16.4851H64.3797V14.6982H58.3926V16.4851H60.1485V20.906Z" fill="#007DC5"/>
<path d="M66.2046 20.906L67.4663 17.1937L68.726 20.906H71.1474L68.7741 14.6982H66.1565L63.7852 20.906H66.2046Z" fill="#007DC5"/>
<path d="M72.3087 20.906H74.7839V16.4851H76.5399V14.6982H70.5527V16.4851H72.3087V20.906Z" fill="#007DC5"/>
<path d="M78.3667 20.906L79.6284 17.1937L80.8881 20.906H83.3095L80.9381 14.6982H78.3186L75.9473 20.906H78.3667Z" fill="#007DC5"/>
<path d="M102.121 25.3441C102.427 26.0469 102.831 26.8075 103.233 27.4852L104.852 30.2156H106.025V24.0078H104.977V26.174C104.977 27.1232 104.998 27.9223 105.079 28.7464L105.058 28.7522C104.771 28.0783 104.412 27.3562 104.002 26.6727L102.4 24.0078H101.105V30.2156H102.152V27.9955C102.152 26.9769 102.136 26.1566 102.092 25.3499L102.121 25.3441Z" fill="#007DC5"/>
<path d="M96.499 28.4614H98.4685L99.03 30.2156H100.246L98.2319 24.0078H96.7914L94.8008 30.2156H95.9721L96.499 28.4614ZM97.1625 26.0719C97.2722 25.7022 97.3664 25.2729 97.4568 24.9089H97.476C97.5703 25.269 97.6722 25.6926 97.7895 26.0758L98.278 27.6065H96.6798L97.1625 26.0719Z" fill="#007DC5"/>
<path d="M78.0412 29.3747C77.4642 29.3747 76.9084 29.1899 76.543 28.9781L76.291 29.9177C76.6295 30.1257 77.3103 30.3143 77.9662 30.3143C79.5663 30.3143 80.3183 29.4479 80.3183 28.4486C80.3183 27.5571 79.801 27.0141 78.7239 26.604C77.8969 26.2882 77.5373 26.0629 77.5373 25.5873C77.5373 25.2215 77.8431 24.8402 78.5624 24.8402C79.1451 24.8402 79.5779 25.0174 79.801 25.1348L80.0722 24.2202C79.749 24.0565 79.2567 23.9141 78.5855 23.9141C77.2411 23.9141 76.391 24.6804 76.391 25.6971C76.391 26.5866 77.0449 27.1373 78.07 27.5012C78.8528 27.7862 79.1682 28.0635 79.1682 28.5314C79.1682 29.0358 78.7624 29.3747 78.0412 29.3747Z" fill="#007DC5"/>
<path d="M61.7602 24.8459C62.266 24.8459 62.6795 24.9576 62.968 25.0886L63.2142 24.1855C62.9834 24.0603 62.4584 23.9102 61.7121 23.9102C59.8177 23.9102 58.3926 25.1425 58.3926 27.1835C58.3926 29.0724 59.5908 30.3124 61.5583 30.3124C62.3083 30.3124 62.8988 30.1641 63.1661 30.0293L62.9796 29.1359C62.6815 29.2707 62.2026 29.3612 61.7429 29.3612C60.3793 29.3612 59.585 28.4947 59.585 27.1257C59.585 25.6354 60.4947 24.8459 61.7602 24.8459Z" fill="#007DC5"/>
<path d="M93.4178 30.2156V24.9609H95.2045V24.0078H90.5137V24.9609H92.285V30.2156H93.4178Z" fill="#007DC5"/>
<path d="M116.055 24.0078L115.309 25.5983C115.097 26.0488 114.926 26.4339 114.772 26.8306H114.753C114.584 26.4108 114.422 26.0565 114.213 25.6002L113.474 24.0078H112.178L114.139 27.6316V30.2156H115.272V27.6008L117.332 24.0097H116.055V24.0078Z" fill="#007DC5"/>
<path d="M66.4971 23.9062C64.747 23.9062 63.5449 25.2522 63.5449 27.1584C63.5449 28.976 64.6527 30.3181 66.4067 30.3181H66.4164C68.1146 30.3181 69.3743 29.1281 69.3743 27.0486C69.3705 25.2733 68.305 23.9062 66.4971 23.9062ZM66.4529 29.4093H66.4433C65.3605 29.4093 64.7277 28.3657 64.7316 27.1314C64.7297 25.8933 65.3259 24.8131 66.4567 24.8131C67.5876 24.8131 68.1685 25.9203 68.1685 27.091C68.1665 28.3888 67.5472 29.4093 66.4529 29.4093Z" fill="#007DC5"/>
<path d="M110.366 24.8459C110.872 24.8459 111.285 24.9576 111.573 25.0886L111.82 24.1855C111.589 24.0603 111.064 23.9102 110.318 23.9102C108.423 23.9102 106.998 25.1425 106.998 27.1835C106.998 29.0724 108.196 30.3124 110.164 30.3124C110.914 30.3124 111.504 30.166 111.772 30.0293L111.585 29.1359C111.287 29.2707 110.808 29.3612 110.348 29.3612C108.985 29.3612 108.19 28.4947 108.19 27.1257C108.19 25.6354 109.1 24.8459 110.366 24.8459Z" fill="#007DC5"/>
<path d="M88.5937 24.0078H87.4609V30.2156H91.144V29.2644H88.5937V24.0078Z" fill="#007DC5"/>
<path d="M86.1709 27.5536V24.0088H85.0381V27.6287C85.0381 28.8456 84.5477 29.4059 83.7322 29.4059C82.9648 29.4059 82.4609 28.8417 82.4609 27.6287V24.0088H81.3281V27.5613C81.3281 29.5137 82.2609 30.3205 83.6899 30.3205C85.1881 30.3186 86.1709 29.4656 86.1709 27.5536Z" fill="#007DC5"/>
<path d="M75.2615 24.0078H74.2133V26.174C74.2133 27.1232 74.2345 27.9223 74.3153 28.7464L74.2941 28.7522C74.0075 28.0783 73.6479 27.3562 73.2382 26.6727L71.6362 24.0078H70.3418V30.2156H71.39V27.9955C71.39 26.9769 71.3746 26.1566 71.3304 25.3518L71.3592 25.346C71.665 26.0488 72.0689 26.8094 72.4709 27.4872L74.0902 30.2175H75.2634V24.0078H75.2615Z" fill="#007DC5"/>
<path d="M80.1074 33.3203H78.9746V39.5281H80.1074V33.3203Z" fill="#007DC5"/>
<path d="M71.1876 36.6167V36.5917C71.7665 36.3857 72.305 35.8465 72.305 35.0532C72.305 34.5257 72.1127 34.0982 71.7761 33.8171C71.3607 33.4705 70.6452 33.3203 69.8778 33.3203C69.1105 33.3203 68.6027 33.3742 68.1738 33.4532V39.5281H69.2893V36.9961H69.8548C70.4933 37.0115 70.7856 37.2714 70.9626 38.0743C71.1337 38.8407 71.2818 39.349 71.3761 39.5281H72.53C72.4069 39.2874 72.2396 38.5807 72.0454 37.8105C71.8915 37.2117 71.6338 36.7862 71.1876 36.6167ZM69.9548 36.17H69.2893V34.2234C69.4028 34.1945 69.6317 34.1675 69.9875 34.1675C70.7145 34.1694 71.1857 34.4833 71.1857 35.1553C71.1857 35.7676 70.7164 36.17 69.9548 36.17Z" fill="#007DC5"/>
<path d="M76.1982 36.1565C75.9578 36.9093 75.7327 37.668 75.5673 38.3997H75.5481C75.3865 37.6487 75.175 36.9228 74.9404 36.1392L74.0941 33.3164H72.8594L74.8653 39.5241H76.1636L78.3061 33.3164H77.1002L76.1982 36.1565Z" fill="#007DC5"/>
<path d="M87.9453 36.7727H90.2821V35.8485H87.9453V34.2522H90.4205V33.3203H86.8125V39.5261H90.5571V38.5942H87.9453V36.7727Z" fill="#007DC5"/>
<path d="M84.4477 34.1555C84.9535 34.1555 85.367 34.2672 85.6555 34.3981L85.9017 33.4951C85.6709 33.3699 85.1459 33.2197 84.3996 33.2197C82.5052 33.2197 81.0801 34.452 81.0801 36.493C81.0801 38.3819 82.2783 39.6219 84.2458 39.6219C84.9959 39.6219 85.5863 39.4756 85.8536 39.3389L85.6671 38.4455C85.367 38.5803 84.8901 38.6708 84.4304 38.6708C83.0668 38.6708 82.2725 37.8043 82.2725 36.4353C82.2725 34.945 83.1822 34.1555 84.4477 34.1555Z" fill="#007DC5"/>
<path d="M60.8235 35.9125C59.9946 35.5968 59.6369 35.3715 59.6369 34.8959C59.6369 34.5301 59.9427 34.1488 60.66 34.1488C61.2428 34.1488 61.6755 34.326 61.8986 34.4434L62.1698 33.5288C61.8467 33.3651 61.3543 33.2227 60.6831 33.2227C59.3388 33.2227 58.4887 33.989 58.4887 35.0057C58.4887 35.8952 59.1426 36.4459 60.1677 36.8098C60.9505 37.0948 61.2659 37.3721 61.2659 37.84C61.2659 38.3483 60.862 38.6872 60.1388 38.6872C59.5619 38.6872 59.006 38.5023 58.6406 38.2905L58.3887 39.2301C58.7272 39.4381 59.408 39.6268 60.0638 39.6268C61.664 39.6268 62.416 38.7603 62.416 37.761C62.4179 36.8657 61.9006 36.3227 60.8235 35.9125Z" fill="#007DC5"/>
<path d="M64.5684 36.7727H66.9051V35.8485H64.5684V34.2522H67.0455V33.3203H63.4355V39.5261H67.1821V38.5942H64.5684V36.7727Z" fill="#007DC5"/>
<path d="M93.7122 35.9125C92.8852 35.5968 92.5255 35.3715 92.5255 34.8959C92.5255 34.5301 92.8313 34.1488 93.5487 34.1488C94.1315 34.1488 94.5642 34.326 94.7873 34.4434L95.0585 33.5288C94.7354 33.3651 94.243 33.2227 93.5718 33.2227C92.2274 33.2227 91.3774 33.989 91.3774 35.0057C91.3774 35.8952 92.0313 36.4459 93.0564 36.8098C93.8391 37.0948 94.1546 37.3721 94.1546 37.84C94.1546 38.3483 93.7507 38.6872 93.0275 38.6872C92.4505 38.6872 91.8947 38.5023 91.5293 38.2905L91.2773 39.2301C91.6158 39.4381 92.2967 39.6268 92.9525 39.6268C94.5527 39.6268 95.3047 38.7603 95.3047 37.761C95.3066 36.8657 94.7892 36.3227 93.7122 35.9125Z" fill="#007DC5"/>
<path d="M0 18.9435C0 16.1323 1.82518 14.4456 4.49275 14.4456V9.66655C4.49275 8.26095 3.55612 7.32324 2.24637 7.32324C0.93663 7.32324 0 8.26095 0 9.66655V18.9435Z" fill="url(#paint0_linear_15490_14581)"/>
<path d="M7.95655 39.6979C9.07974 39.6979 10.1087 39.5112 11.0453 39.1819C6.31793 39.9791 4.49275 36.7462 4.49275 33.0916V18.0999H9.96829C11.2319 18.0999 12.0743 17.3509 12.0743 16.2726C12.0743 15.1943 11.2319 14.4453 9.96829 14.4453H4.49275C1.82518 14.4453 0 16.132 0 18.9432V31.8266C0 36.9811 2.94837 39.6979 7.95655 39.6979Z" fill="url(#paint1_linear_15490_14581)"/>
<path d="M11.0428 39.1829C12.9141 38.4801 14.3662 37.1688 15.3009 35.2472L13.1949 31.4521C12.2583 34.2633 10.6216 35.7632 8.37523 35.7632C6.03462 35.7632 4.49023 34.4038 4.49023 31.3115V33.0926C4.49023 36.7471 6.31541 39.98 11.0428 39.1829Z" fill="url(#paint2_linear_15490_14581)"/>
<path d="M30.2767 38.4338C19.6064 40.0261 16.2369 34.3113 16.2369 26.956C16.2369 21.6147 19.5122 17.9602 24.2396 17.9602C25.9705 17.9602 27.4226 18.3356 28.7323 18.9441C29.3401 19.2252 29.8555 19.3196 30.3229 19.3196C31.446 19.3196 32.1942 18.5706 32.1942 17.4461C32.1942 16.7433 31.773 16.0405 30.7902 15.5726C29.0112 14.683 26.7187 14.167 24.2376 14.167C16.8427 14.167 11.7422 19.4139 11.7422 27.0504C11.7422 34.5462 16.6561 39.747 24.5646 39.747C26.7206 39.745 28.5919 39.3234 30.2767 38.4338Z" fill="url(#paint3_linear_15490_14581)"/>
<path d="M11.7441 27.0474C11.7441 19.411 16.8446 14.1641 24.2396 14.1641C26.7206 14.1641 29.0131 14.6801 30.7922 15.5697C31.775 16.0376 32.1961 16.7404 32.1961 17.4432C32.1961 18.5676 31.448 19.3166 30.3248 19.3166C29.8575 19.3166 29.342 19.2223 28.7343 18.9412C27.1437 18.1922 25.5993 17.9573 24.2415 17.9573C17.7332 17.9592 11.7441 22.0816 11.7441 27.0474Z" fill="url(#paint4_linear_15490_14581)"/>
<path d="M39.6826 15.6641C39.2614 16.0857 39.0268 16.6018 39.0268 17.2102C39.0268 18.7564 40.4769 21.0515 43.8465 23.3949L47.6834 26.0655C50.4914 28.0333 51.6145 29.9068 51.6145 32.718C51.6145 34.7321 50.8183 36.4669 49.5086 37.6838C49.9759 37.2621 50.2567 36.6999 50.2567 35.9509C50.2567 34.3104 48.6181 31.7341 45.1081 29.2984L41.5982 26.8626C38.6498 24.8005 37.4805 22.8808 37.4805 20.2563C37.4805 18.7102 38.0421 17.3046 38.9787 16.2744C39.2153 16.0376 39.448 15.8508 39.6826 15.6641Z" fill="url(#paint5_linear_15490_14581)"/>
<path d="M36.6426 36.6994C36.6426 37.4484 37.0176 38.0588 38.0004 38.5267C39.3582 39.1833 41.5565 39.7455 43.5221 39.7455C46.0031 39.7455 48.061 38.9965 49.5131 37.6833C49.9804 37.2616 50.2612 36.6994 50.2612 35.9504C50.2612 34.3099 48.6226 31.7336 45.1126 29.2979C46.7032 30.4223 47.359 31.36 47.359 32.7175C47.359 34.7315 45.7685 36.0909 43.474 36.0909C41.2738 36.0909 39.4025 34.9665 38.3735 34.9665C37.3446 34.9665 36.6426 35.6693 36.6426 36.6994Z" fill="url(#paint6_linear_15490_14581)"/>
<path d="M43.847 23.3958C42.3488 22.3175 41.6949 21.3336 41.6949 20.1629C41.6949 18.663 42.9123 17.7272 44.6432 17.7272C46.8435 17.7272 47.8724 18.7573 49.1822 18.7573C50.2111 18.7573 50.9131 18.0545 50.9131 17.0244C50.9131 16.2754 50.5381 15.665 49.5553 15.1971C48.0109 14.4481 46.3261 14.167 44.5009 14.167C42.5815 14.167 40.8967 14.7292 39.6812 15.6669C39.26 16.0886 39.0254 16.6046 39.0254 17.2131C39.0254 18.7573 40.4775 21.0525 43.847 23.3958Z" fill="url(#paint7_linear_15490_14581)"/>
<path d="M16.2383 26.955C16.2383 34.3103 19.6078 40.0271 30.2781 38.4328C33.6938 36.6517 36.1287 33.0453 37.8116 27.5172L38.7943 24.2844C37.8577 23.0655 37.4846 21.7081 37.4846 20.2543C37.4846 18.7082 38.0462 17.3026 38.9828 16.2725C37.5788 17.7724 36.4095 19.9732 35.4729 23.0655L34.3958 26.6258C32.4764 32.9047 29.4357 35.9027 24.7083 35.9027C19.5136 35.9027 16.2383 32.2963 16.2383 26.955Z" fill="url(#paint8_linear_15490_14581)"/>
</g>
<defs>
<linearGradient id="paint0_linear_15490_14581" x1="2.24697" y1="8.56071" x2="2.24697" y2="17.8372" gradientUnits="userSpaceOnUse">
<stop stop-color="#FFC708"/>
<stop offset="0.9997" stop-color="#F05731"/>
<stop offset="1" stop-color="#F05731"/>
</linearGradient>
<linearGradient id="paint1_linear_15490_14581" x1="7.34018" y1="15.6888" x2="4.91161" y2="33.24" gradientUnits="userSpaceOnUse">
<stop stop-color="#F80000"/>
<stop offset="1" stop-color="#EE3984"/>
</linearGradient>
<linearGradient id="paint2_linear_15490_14581" x1="3.97332" y1="36.4533" x2="16.662" y2="32.4317" gradientUnits="userSpaceOnUse">
<stop stop-color="#EE3984"/>
<stop offset="0.9997" stop-color="#7800DA"/>
<stop offset="1" stop-color="#7800DA"/>
</linearGradient>
<linearGradient id="paint3_linear_15490_14581" x1="21.2192" y1="20.5599" x2="25.8643" y2="36.9214" gradientUnits="userSpaceOnUse">
<stop stop-color="#FF0000"/>
<stop offset="0.9994" stop-color="#EE3984"/>
<stop offset="1" stop-color="#EE3984"/>
</linearGradient>
<linearGradient id="paint4_linear_15490_14581" x1="11.7437" y1="20.6062" x2="32.1942" y2="20.6062" gradientUnits="userSpaceOnUse">
<stop stop-color="#FFC708"/>
<stop offset="1" stop-color="#FA3B00"/>
</linearGradient>
<linearGradient id="paint5_linear_15490_14581" x1="37.4834" y1="26.6735" x2="51.6162" y2="26.6735" gradientUnits="userSpaceOnUse">
<stop stop-color="#FF0000"/>
<stop offset="1" stop-color="#EE3984"/>
</linearGradient>
<linearGradient id="paint6_linear_15490_14581" x1="48.8843" y1="33.5022" x2="36.4404" y2="36.7924" gradientUnits="userSpaceOnUse">
<stop stop-color="#EE3984"/>
<stop offset="1" stop-color="#7800DA"/>
</linearGradient>
<linearGradient id="paint7_linear_15490_14581" x1="39.0263" y1="18.78" x2="50.9129" y2="18.78" gradientUnits="userSpaceOnUse">
<stop stop-color="#FFC708"/>
<stop offset="1" stop-color="#F05731"/>
</linearGradient>
<linearGradient id="paint8_linear_15490_14581" x1="23.4465" y1="33.9925" x2="32.1217" y2="19.8353" gradientUnits="userSpaceOnUse">
<stop stop-color="#EE3984"/>
<stop offset="1" stop-color="#7800DA"/>
</linearGradient>
<clipPath id="clip0_15490_14581">
<rect width="117" height="47.069" fill="white"/>
</clipPath>
</defs>
</svg>
