<svg width="118" height="29" viewBox="0 0 118 29" fill="none" xmlns="http://www.w3.org/2000/svg">
<path d="M0 10.2107C0 7.74051 1.60563 6.2584 3.95232 6.2584V2.05906C3.95232 0.823963 3.12835 0 1.97616 0C0.823963 0 0 0.823963 0 2.05906V10.2107Z" fill="url(#paint0_linear_15809_16031)"/>
<path d="M6.99946 28.4473C7.98753 28.4473 8.89271 28.2832 9.71667 27.9939C5.55794 28.6943 3.95232 25.8536 3.95232 22.6423V9.46907H8.7692C9.88079 9.46907 10.6218 8.81091 10.6218 7.86344C10.6218 6.91597 9.88079 6.25781 8.7692 6.25781H3.95232C1.60563 6.25781 0 7.73993 0 10.2101V21.5307C0 26.06 2.59371 28.4473 6.99946 28.4473Z" fill="url(#paint1_linear_15809_16031)"/>
<path d="M9.71748 27.9947C11.3637 27.3771 12.6411 26.2249 13.4634 24.5364L11.6107 21.2016C10.7868 23.6718 9.34695 24.9898 7.3708 24.9898C5.31173 24.9898 3.95313 23.7953 3.95313 21.0781V22.6431C3.95312 25.8544 5.55875 28.6951 9.71748 27.9947Z" fill="url(#paint2_linear_15809_16031)"/>
<path d="M26.6351 27.3349C17.2483 28.7341 14.2841 23.7125 14.2841 17.2494C14.2841 12.556 17.1654 9.34479 21.3241 9.34479C22.8469 9.34479 24.1243 9.67472 25.2765 10.2094C25.8111 10.4564 26.2645 10.5393 26.6757 10.5393C27.6638 10.5393 28.3219 9.88113 28.3219 8.89305C28.3219 8.2755 27.9514 7.65795 27.0868 7.24682C25.5218 6.46515 23.505 6.01172 21.3225 6.01172C14.817 6.01172 10.3301 10.6222 10.3301 17.3323C10.3301 23.919 14.6529 28.4888 21.6101 28.4888C23.5067 28.4871 25.153 28.1166 26.6351 27.3349Z" fill="url(#paint3_linear_15809_16031)"/>
<path d="M10.334 17.3304C10.334 10.6202 14.8209 6.00977 21.3264 6.00977C23.5089 6.00977 25.5257 6.4632 27.0907 7.24486C27.9553 7.656 28.3258 8.27355 28.3258 8.8911C28.3258 9.87918 27.6677 10.5373 26.6796 10.5373C26.2684 10.5373 25.815 10.4544 25.2804 10.2074C23.8812 9.54925 22.5225 9.34284 21.3281 9.34284C15.6026 9.34453 10.334 12.9669 10.334 17.3304Z" fill="url(#paint4_linear_15809_16031)"/>
<path d="M34.9118 7.3291C34.5413 7.69963 34.3349 8.15306 34.3349 8.68771C34.3349 10.0463 35.6106 12.0631 38.5749 14.1221L41.9502 16.4688C44.4204 18.198 45.4085 19.8442 45.4085 22.3144C45.4085 24.0841 44.708 25.6086 43.5559 26.6778C43.967 26.3073 44.214 25.8133 44.214 25.1551C44.214 23.7136 42.7725 21.4498 39.6847 19.3096L36.597 17.1693C34.0033 15.3572 32.9746 13.6704 32.9746 11.3643C32.9746 10.0057 33.4687 8.77061 34.2926 7.86544C34.5007 7.65733 34.7054 7.49322 34.9118 7.3291Z" fill="url(#paint5_linear_15809_16031)"/>
<path d="M32.2363 25.8123C32.2363 26.4705 32.5662 27.0068 33.4308 27.4179C34.6253 27.9949 36.5592 28.4889 38.2883 28.4889C40.4709 28.4889 42.2812 27.8308 43.5586 26.6769C43.9698 26.3064 44.2168 25.8123 44.2168 25.1542C44.2168 23.7126 42.7753 21.4489 39.6875 19.3086C41.0867 20.2967 41.6637 21.1206 41.6637 22.3134C41.6637 24.0832 40.2645 25.2777 38.246 25.2777C36.3105 25.2777 34.6642 24.2896 33.759 24.2896C32.8539 24.2896 32.2363 24.9071 32.2363 25.8123Z" fill="url(#paint6_linear_15809_16031)"/>
<path d="M38.5756 14.1211C37.2576 13.1736 36.6824 12.309 36.6824 11.2803C36.6824 9.96234 37.7533 9.14007 39.2761 9.14007C41.2116 9.14007 42.1168 10.0452 43.269 10.0452C44.1742 10.0452 44.7917 9.4277 44.7917 8.52252C44.7917 7.86437 44.4618 7.32803 43.5972 6.91689C42.2386 6.25874 40.7565 6.01172 39.1509 6.01172C37.4623 6.01172 35.9802 6.50576 34.9109 7.32972C34.5404 7.70025 34.334 8.15368 34.334 8.68833C34.334 10.0452 35.6114 12.062 38.5756 14.1211Z" fill="url(#paint7_linear_15809_16031)"/>
<path d="M14.2871 17.2481C14.2871 23.7112 17.2513 28.7345 26.6381 27.3336C29.6429 25.7686 31.7849 22.5996 33.2653 17.7421L34.1299 14.9014C33.3059 13.8304 32.9777 12.6376 32.9777 11.3602C32.9777 10.0016 33.4717 8.7665 34.2957 7.86133C33.0606 9.17933 32.0319 11.1132 31.208 13.8304L30.2605 16.9588C28.572 22.4761 25.897 25.1104 21.7383 25.1104C17.1684 25.1104 14.2871 21.9415 14.2871 17.2481Z" fill="url(#paint8_linear_15809_16031)"/>
<path d="M75.1778 3.25968C74.7979 4.38253 74.4813 5.35514 74.1409 6.31984C73.7452 7.43477 74.0222 7.26081 72.8508 7.27663C72.3046 7.27663 71.7585 7.27663 71.1016 7.27663C71.2519 6.83381 71.3628 6.47798 71.4894 6.13797C72.1938 4.31136 72.9141 2.49267 73.5948 0.666066C73.7214 0.341864 73.9035 0.254883 74.2122 0.254883C74.8849 0.254883 75.5577 0.26279 76.2305 0.254883C76.5709 0.254883 76.7371 0.381401 76.8637 0.71351C77.6235 2.7378 78.4151 4.75418 79.1986 6.77056C79.3332 7.11057 79.2778 7.29244 78.8583 7.28453C78.2409 7.26872 77.6156 7.30035 76.9983 7.26081C76.832 7.25291 76.5867 7.07894 76.5313 6.9287C76.1514 5.90074 75.811 4.84906 75.4469 3.8132C75.3994 3.67087 75.3124 3.53644 75.1857 3.25968H75.1778Z" fill="#007DC5"/>
<path d="M61.5726 3.24408C61.1294 4.5567 60.7495 5.727 60.3379 6.88938C60.2904 7.03171 60.14 7.24521 60.0213 7.24521C59.206 7.27684 58.3829 7.26103 57.4727 7.26103C57.8051 6.35168 58.0979 5.52931 58.4066 4.72276C58.8974 3.44177 59.4039 2.16868 59.8788 0.879778C60.045 0.436965 60.2587 0.199744 60.7811 0.247188C61.3827 0.294632 61.9842 0.27091 62.5937 0.247188C62.934 0.247188 63.1319 0.373706 63.2506 0.697908C64.0342 2.76964 64.8336 4.83346 65.6331 6.89729C65.7439 7.17404 65.6331 7.27684 65.356 7.27684C64.6833 7.27684 64.0105 7.31638 63.3377 7.25312C63.1477 7.2373 62.9103 6.94473 62.8311 6.73123C62.467 5.75072 62.1584 4.74648 61.818 3.75806C61.7705 3.61573 61.6914 3.48921 61.5647 3.24408H61.5726Z" fill="#007DC5"/>
<path d="M68.4348 0.255192C69.3688 0.255192 70.2949 0.263099 71.2288 0.255192C71.6246 0.255192 71.7987 0.397525 71.7829 0.800801C71.767 1.16454 71.7829 1.52828 71.7829 1.88411C71.7829 2.18459 71.6404 2.32692 71.3396 2.31902C71.1022 2.31902 70.8568 2.31902 70.6115 2.31902C70.0891 2.31902 69.8279 2.57205 69.8279 3.07812C69.8279 4.28795 69.812 5.48987 69.8279 6.6997C69.8358 7.15042 69.6854 7.31647 69.2263 7.29275C68.6406 7.26112 68.0549 7.26903 67.4692 7.29275C67.1051 7.30857 66.9864 7.17414 66.9943 6.81831C67.0101 5.50569 66.9943 4.20097 67.0101 2.88835C67.0101 2.47716 66.9072 2.31111 66.464 2.31111C65.0076 2.31111 65.0314 2.3032 65.0234 0.848245C65.0234 0.389617 65.1976 0.247285 65.6329 0.255192C66.5669 0.271007 67.4929 0.255192 68.4269 0.255192H68.4348Z" fill="#007DC5"/>
<path d="M54.8451 0.254883C55.779 0.254883 56.7051 0.26279 57.6391 0.254883C58.0111 0.254883 58.1852 0.373493 58.1615 0.760955C58.1377 1.12469 58.1456 1.48843 58.1615 1.84426C58.1773 2.208 58.0111 2.34243 57.6628 2.31871C57.4254 2.30289 57.18 2.31871 56.9346 2.31871C56.4281 2.31871 56.1748 2.56384 56.1748 3.05409C56.1748 4.27973 56.159 5.50538 56.1748 6.72311C56.1748 7.13429 56.0719 7.31616 55.6208 7.29244C55.0509 7.26081 54.481 7.26081 53.9111 7.29244C53.4916 7.31616 53.3808 7.1422 53.3808 6.74683C53.3966 5.48956 53.365 4.23229 53.3966 2.97502C53.4045 2.49267 53.27 2.30289 52.7555 2.3108C51.4258 2.32661 51.4258 2.3108 51.4258 0.982361C51.4258 0.502647 51.6606 0.26279 52.1302 0.26279C53.0246 0.26279 53.9269 0.26279 54.8213 0.26279L54.8451 0.254883Z" fill="#007DC5"/>
<path d="M69.2016 15.6432C69.2016 15.3901 69.2016 15.2083 69.2016 15.0343C69.1858 13.7928 69.1779 12.5514 69.1383 11.3099C69.1225 10.8434 69.2887 10.6773 69.7715 10.6773C70.2781 10.6773 70.3731 10.8908 70.3652 11.3336C70.3493 13.2156 70.3652 15.0896 70.3493 16.9716C70.3493 17.2088 70.2623 17.5726 70.104 17.6516C69.6845 17.8651 69.0117 17.6833 68.8376 17.3907C67.9986 15.9515 67.1754 14.5045 66.3443 13.0574C66.2414 12.8835 66.1464 12.7095 65.9802 12.417C65.9802 12.7016 65.9802 12.8677 65.9802 13.0258C65.9881 14.4254 65.9961 15.8171 66.0119 17.2167C66.0198 17.7623 65.6478 17.6833 65.3074 17.707C64.9275 17.7307 64.793 17.5805 64.793 17.2009C64.8088 15.2003 64.8088 13.1998 64.793 11.1992C64.793 10.8118 64.9592 10.7248 65.3154 10.6852C66.0198 10.6062 66.4472 10.8513 66.7955 11.4918C67.5395 12.8756 68.3627 14.2119 69.2016 15.6511V15.6432Z" fill="#007DC5"/>
<path d="M100.435 12.5191C100.435 14.0848 100.435 15.5239 100.435 16.971C100.435 17.651 100.094 17.8961 99.4611 17.6668C99.3582 17.6273 99.2474 17.4375 99.2474 17.3189C99.2316 15.2313 99.2395 13.1517 99.2474 11.0642C99.2474 10.9614 99.3028 10.819 99.382 10.7558C99.7223 10.5027 100.767 10.732 100.989 11.1195C101.812 12.5428 102.627 13.982 103.45 15.4132C103.482 15.4686 103.514 15.5239 103.601 15.6742C103.624 15.4369 103.648 15.3104 103.648 15.1839C103.632 13.895 103.624 12.5982 103.585 11.3093C103.569 10.8348 103.743 10.6767 104.218 10.6767C104.677 10.6767 104.812 10.8427 104.804 11.2856C104.788 13.1833 104.804 15.0732 104.788 16.971C104.788 17.2082 104.645 17.6273 104.543 17.6352C104.115 17.6747 103.585 17.8961 103.276 17.3663C102.429 15.9114 101.598 14.4485 100.759 12.9936C100.68 12.8591 100.593 12.7405 100.443 12.5191H100.435Z" fill="#007DC5"/>
<path d="M57.1309 14.2353C57.1942 12.4878 57.9699 11.2858 59.442 10.7481C61.3179 10.0602 63.3679 11.2305 63.6687 13.1994C63.8428 14.3381 63.8032 15.4688 63.075 16.4652C62.244 17.6117 61.0963 17.9043 59.7903 17.7066C58.611 17.5248 57.8432 16.7973 57.4554 15.6823C57.2971 15.2158 57.2338 14.7176 57.1309 14.2353ZM62.426 14.172C62.3231 13.7371 62.2677 13.2864 62.1094 12.8752C61.8482 12.1636 61.3575 11.6891 60.5502 11.6496C59.7666 11.6021 59.2204 11.9975 58.9038 12.6696C58.4289 13.6501 58.4289 14.6702 58.8801 15.6665C59.1967 16.3703 59.7745 16.7656 60.566 16.7182C61.3496 16.6787 61.8799 16.2359 62.1252 15.4926C62.2598 15.0735 62.331 14.6307 62.4418 14.172H62.426Z" fill="#007DC5"/>
<path d="M65.941 24.7764C66.8829 25.5909 66.8037 26.7612 67.1916 27.7575C67.2232 27.8366 67.1916 27.9789 67.1283 28.0343C66.9146 28.2557 65.9727 28.058 65.8698 27.7654C65.7115 27.2752 65.5848 26.777 65.4582 26.2788C65.2524 25.4802 64.92 25.2351 64.0968 25.2509C63.7802 25.2509 63.6694 25.3616 63.6773 25.6779C63.6931 26.3184 63.6615 26.951 63.6931 27.5915C63.7169 28.0659 63.4636 28.1292 63.0837 28.1134C62.7117 28.0975 62.3555 28.145 62.3634 27.5757C62.3792 25.6067 62.3792 23.6457 62.3634 21.6768C62.3634 21.3763 62.4742 21.2419 62.7671 21.1944C63.7802 21.0284 64.7933 21.0125 65.7906 21.2972C66.4159 21.4791 66.8512 21.914 66.9937 22.5387C67.152 23.2424 67.0254 23.9145 66.4238 24.4127C66.2972 24.5234 66.1547 24.6183 65.941 24.7764ZM63.6852 23.1633C63.6852 23.3215 63.6852 23.4717 63.6852 23.6299C63.6852 24.3336 63.709 24.3574 64.4213 24.2862C64.6746 24.2625 64.9595 24.2229 65.1574 24.0885C65.379 23.9383 65.6007 23.6931 65.6798 23.4401C65.7985 23.0368 65.7827 22.5228 65.3395 22.3568C64.8804 22.1828 64.3501 22.1749 63.8514 22.1986C63.7802 22.1986 63.7406 22.7996 63.6852 23.1238C63.6852 23.1396 63.6852 23.1554 63.6852 23.1792V23.1633Z" fill="#007DC5"/>
<path d="M81.2332 13.2151C81.2332 12.5272 81.249 11.8392 81.2332 11.1513C81.2174 10.6215 81.5815 10.7006 81.906 10.6926C82.2305 10.6926 82.5867 10.6215 82.5788 11.1513C82.5629 12.4639 82.6263 13.7765 82.555 15.0812C82.3967 17.8488 79.9747 18.1967 78.3521 17.4455C77.711 17.153 77.2915 16.5599 77.2519 15.8562C77.157 14.2747 77.1332 12.6932 77.1095 11.1117C77.1016 10.5661 77.5606 10.7243 77.8772 10.6926C78.2413 10.6531 78.4155 10.8034 78.4155 11.1908C78.4075 12.3453 78.4075 13.4998 78.4155 14.6542C78.4155 14.9468 78.4471 15.2394 78.5104 15.5241C78.7083 16.378 79.1911 16.7813 79.9351 16.726C80.6475 16.6785 81.162 16.1092 81.2332 15.2868C81.2332 15.2552 81.2332 15.2157 81.2332 15.184C81.2332 14.5277 81.2332 13.8714 81.2332 13.223V13.2151Z" fill="#007DC5"/>
<path d="M98.2813 17.6829C97.8697 17.6829 97.5214 17.7145 97.1969 17.667C97.0544 17.6433 96.904 17.4694 96.8091 17.3191C96.7141 17.161 96.6903 16.9633 96.6191 16.7893C96.4766 16.4335 96.3816 15.8246 96.1679 15.7772C95.5664 15.6349 94.9015 15.706 94.2683 15.7456C94.1654 15.7456 94.0467 15.9828 93.9834 16.133C93.8884 16.3702 93.8488 16.6312 93.7697 16.8763C93.4531 17.7777 93.3581 17.8252 92.25 17.6117C92.3529 17.24 92.4479 16.8684 92.5666 16.5047C93.1444 14.7097 93.7301 12.9147 94.3 11.1118C94.4029 10.7876 94.5849 10.6927 94.9015 10.6848C96.0017 10.6611 96.0176 10.6453 96.4371 11.8788C97.0465 13.6817 97.6243 15.5004 98.2179 17.3112C98.2417 17.3903 98.2496 17.4773 98.2971 17.6829H98.2813ZM96.0571 14.7334C95.7564 13.7766 95.4952 12.9305 95.2261 12.0844C95.0282 12.3691 94.9728 12.63 94.9015 12.891C94.8224 13.1519 94.7274 13.4129 94.6403 13.6738C94.3976 14.3855 94.6562 14.7413 95.416 14.7413C95.5822 14.7413 95.7564 14.7413 96.065 14.7413L96.0571 14.7334Z" fill="#007DC5"/>
<path d="M83.2266 24.5789C83.2266 23.5984 83.2345 22.61 83.2266 21.6295C83.2266 21.242 83.3374 21.068 83.7569 21.0759C84.7542 21.0997 85.7594 21.0997 86.7567 21.0759C87.2316 21.0601 87.2791 21.2973 87.2949 21.6848C87.3107 22.0881 87.1524 22.1909 86.7804 22.1751C86.1947 22.1513 85.609 22.1751 85.0233 22.1592C84.7067 22.1513 84.5642 22.2225 84.5563 22.5862C84.5325 23.9226 84.5167 23.9226 85.8702 23.9226C86.1156 23.9226 86.353 23.9305 86.5984 23.9226C86.9783 23.8989 87.2237 23.97 87.2078 24.4445C87.1999 24.9031 87.01 25.0454 86.5746 25.0296C86.0601 25.0059 85.5378 25.0296 85.0233 25.0217C84.6988 25.0138 84.5405 25.1008 84.5642 25.4566C84.5879 25.8362 84.58 26.2157 84.5642 26.5953C84.5484 26.9116 84.675 27.0223 84.9916 27.0144C85.6644 26.9986 86.3372 27.0302 87.01 26.9986C87.4374 26.9827 87.4849 27.1883 87.4769 27.5363C87.4769 27.8842 87.4453 28.1293 86.9862 28.1214C85.9018 28.0977 84.8096 28.0977 83.7252 28.1214C83.3215 28.1214 83.2266 27.9474 83.2266 27.5916C83.2424 26.5953 83.2266 25.591 83.2266 24.5868V24.5789Z" fill="#007DC5"/>
<path d="M57.0597 24.5862C57.0597 23.6057 57.0676 22.6173 57.0597 21.6368C57.0597 21.2414 57.2022 21.0754 57.6058 21.0833C58.6031 21.0991 59.6083 21.0991 60.6056 21.0833C61.0647 21.0754 61.1439 21.3047 61.1518 21.6921C61.1597 22.1112 60.946 22.1745 60.6056 22.1666C59.9883 22.1508 59.363 22.1666 58.7377 22.1666C58.4844 22.1666 58.3815 22.2457 58.3578 22.5224C58.2628 23.9299 58.2549 23.9299 59.6638 23.9299C59.9091 23.9299 60.1466 23.9299 60.3919 23.9299C61.0014 23.9299 61.0251 23.9695 61.0172 24.5783C61.0172 24.9104 60.8827 25.037 60.5502 25.037C59.9645 25.0211 59.3788 25.037 58.7931 25.037C58.4844 25.037 58.3578 25.1477 58.3736 25.464C58.3894 25.8435 58.3894 26.2231 58.3736 26.6026C58.3657 26.9189 58.4923 27.0296 58.801 27.0217C59.458 27.0059 60.1149 27.0375 60.7719 27.0138C61.1834 26.998 61.3101 27.1482 61.3022 27.5515C61.3022 27.9548 61.1993 28.1446 60.7402 28.1367C59.7192 28.105 58.706 28.1129 57.685 28.1367C57.218 28.1446 57.028 27.9864 57.0439 27.512C57.0676 26.5473 57.0439 25.5826 57.0439 24.6179L57.0597 24.5862Z" fill="#007DC5"/>
<path d="M70.6895 26.5005C71.0219 25.4092 71.3385 24.3497 71.671 23.2901C71.8688 22.6496 72.0826 22.017 72.3042 21.3844C72.3992 21.1076 73.4519 20.9337 73.6102 21.1788C73.6735 21.2737 73.6576 21.4477 73.6102 21.5663C72.9136 23.5985 72.1855 25.6148 71.5048 27.647C71.2752 28.3271 70.7607 28.0345 70.3492 28.0977C69.9534 28.161 69.803 27.908 69.7001 27.5838C69.0511 25.5753 68.4021 23.5668 67.753 21.5504C67.6501 21.2262 67.7135 21.076 68.0934 21.0681C69.0432 21.0444 69.0274 21.0365 69.2806 21.9458C69.7001 23.4166 70.1434 24.8795 70.5787 26.3502C70.5945 26.3898 70.6341 26.4293 70.6895 26.4926V26.5005Z" fill="#007DC5"/>
<path d="M90.1058 28.239C89.6229 28.1362 89.1322 28.0334 88.6494 27.9227C88.0953 27.7961 88.317 27.4087 88.3961 27.1003C88.4832 26.7366 88.7048 26.784 89.0293 26.8552C89.5675 26.9738 90.1533 27.0528 90.6994 26.9975C90.9606 26.9738 91.3326 26.6338 91.3959 26.3728C91.4592 26.1119 91.2851 25.6691 91.0635 25.4951C90.6836 25.2025 90.1612 25.0918 89.7496 24.8309C89.3222 24.562 88.8473 24.2615 88.594 23.8504C87.9212 22.7671 88.6019 21.3833 89.987 21.1144C90.6677 20.98 91.4197 21.1223 92.1241 21.2251C92.6702 21.3042 92.3695 21.7312 92.322 22.0159C92.2666 22.3401 92.0608 22.3005 91.7758 22.2452C91.293 22.1582 90.7865 22.1186 90.3036 22.1819C90.082 22.2135 89.7733 22.5219 89.7338 22.7433C89.6942 22.9885 89.8525 23.3759 90.0504 23.5183C90.4461 23.8029 90.9368 23.9611 91.3801 24.1746C92.132 24.5304 92.7256 25.0365 92.781 25.93C92.8602 27.0766 92.0054 28.0175 90.7865 28.1441C90.5648 28.1678 90.3353 28.1678 90.1137 28.1836C90.1137 28.2073 90.1058 28.2231 90.0978 28.2469L90.1058 28.239Z" fill="#007DC5"/>
<path d="M51.7105 26.8239C52.3912 26.9109 53.0007 27.0532 53.6101 27.0453C54.4729 27.0295 54.9399 26.2862 54.4808 25.7011C54.2433 25.4006 53.8159 25.2425 53.4597 25.0448C53.0482 24.8075 52.5891 24.6336 52.2092 24.3489C51.2594 23.6531 51.2752 22.0242 52.5733 21.3283C53.4756 20.846 54.4333 20.8934 55.3831 21.2018C55.9451 21.3837 55.5335 21.7316 55.5018 22.0004C55.4622 22.3088 55.296 22.293 55.019 22.2377C54.5362 22.1507 54.0217 22.0795 53.5468 22.1586C53.2935 22.1981 52.9848 22.5223 52.9057 22.7833C52.8503 22.9809 53.0561 23.3526 53.254 23.5028C53.6022 23.7638 54.0296 23.9377 54.4491 24.0959C55.5493 24.515 56.0875 25.3136 55.953 26.389C55.8422 27.3063 54.9873 28.0812 53.9267 28.1286C53.3173 28.1603 52.6841 28.1049 52.0904 27.9784C51.4097 27.8282 51.4018 27.7412 51.6314 27.0849C51.663 26.99 51.7026 26.8951 51.7264 26.8239H51.7105Z" fill="#007DC5"/>
<path d="M71.7515 16.346C72.2027 16.4488 72.6301 16.5595 73.0654 16.6228C73.3029 16.6623 73.5482 16.6465 73.7857 16.6228C74.2448 16.5912 74.5693 16.3777 74.6563 15.8953C74.7434 15.4051 74.4743 15.0967 74.0865 14.899C73.6036 14.6459 73.0812 14.4562 72.5984 14.1952C71.5774 13.6496 71.2845 12.4635 71.9256 11.5067C72.2581 11.0086 72.7805 10.7002 73.3424 10.6527C73.9994 10.5974 74.6722 10.7081 75.3291 10.7713C75.7803 10.8188 75.7249 11.1272 75.5982 11.4197C75.4874 11.6728 75.5112 12.0286 74.9888 11.8309C74.5614 11.6649 74.039 11.6728 73.572 11.7439C73.3345 11.7835 73.0179 12.0919 72.9625 12.3291C72.915 12.5584 73.0892 12.9459 73.295 13.0961C73.6432 13.357 74.0785 13.5152 74.4901 13.6733C75.8752 14.211 76.4372 15.6581 75.6536 16.7968C75.2104 17.4373 74.5297 17.714 73.7778 17.714C73.1841 17.714 72.5905 17.6112 71.9969 17.5242C71.522 17.4531 71.3953 17.1842 71.6249 16.7493C71.6882 16.6307 71.7119 16.4963 71.7594 16.3302L71.7515 16.346Z" fill="#007DC5"/>
<path d="M80.4496 28.2068C78.5262 28.1831 77.331 27.2895 76.9036 25.5183C76.5 23.8498 77.2677 22.1102 78.7558 21.3669C79.6897 20.9004 80.687 20.9241 81.6843 21.0902C82.0405 21.1534 82.2542 21.3195 82.1434 21.7781C82.0405 22.1814 81.8584 22.2051 81.4864 22.1814C80.8611 22.1418 80.1805 22.0786 79.6106 22.2763C78.55 22.6321 78.0117 23.8577 78.2254 25.0359C78.5262 26.6569 79.6343 27.3291 81.4785 26.9732C81.7714 26.9179 82.0247 26.823 82.1038 27.2421C82.175 27.5979 82.2384 27.9458 81.7239 28.017C81.2965 28.0724 80.877 28.1435 80.4496 28.2068Z" fill="#007DC5"/>
<path d="M56.4827 11.8552C55.3033 11.6022 54.124 11.4361 53.285 12.5589C52.6043 13.4683 52.6122 14.8758 53.2612 15.7693C54.1002 16.9317 55.3033 16.6708 56.4748 16.5047C57.0051 17.2085 56.8705 17.588 56.0157 17.6908C55.0342 17.8094 54.0369 17.8569 53.1346 17.3587C51.5516 16.4731 51.1717 14.9232 51.5358 13.3022C52.0661 10.9221 54.2031 10.3132 56.1977 10.6691C56.918 10.7956 56.9813 11.1435 56.4748 11.8552H56.4827Z" fill="#007DC5"/>
<path d="M110.937 11.864C109.719 11.6189 108.492 11.4133 107.676 12.5994C107.019 13.5483 106.988 14.6553 107.574 15.6359C108.365 16.9406 109.663 16.7113 110.906 16.5136C110.937 16.5452 110.969 16.5689 110.985 16.6006C111.333 17.415 111.207 17.6285 110.328 17.7234C109.157 17.8499 108.009 17.8341 107.035 17.0355C106.363 16.4898 105.983 15.7703 105.888 14.9084C105.721 13.406 106.046 12.1013 107.384 11.1998C108.381 10.5356 109.489 10.4882 110.613 10.6779C111.278 10.7886 111.317 10.9231 111.08 11.5556C111.04 11.6664 110.977 11.7691 110.93 11.8719L110.937 11.864Z" fill="#007DC5"/>
<path d="M111.754 10.8263C112.696 10.4783 113.1 10.6365 113.448 11.4193C113.772 12.1389 114.113 12.8426 114.493 13.6571C114.619 13.4831 114.714 13.3803 114.77 13.2617C115.094 12.558 115.403 11.8542 115.727 11.1505C115.917 10.7314 116.78 10.4704 117.152 10.7393C117.223 10.7946 117.223 11.0556 117.152 11.1663C116.661 12.0756 116.179 12.9929 115.617 13.8548C115.253 14.4241 115.086 14.9934 115.126 15.6577C115.158 16.1716 115.126 16.6935 115.126 17.2075C115.142 17.761 114.754 17.674 114.414 17.6899C114.065 17.7057 113.788 17.674 113.82 17.2154C113.844 16.907 113.788 16.5907 113.828 16.2823C113.954 15.199 113.63 14.266 113.06 13.3645C112.641 12.7161 112.3 12.0124 111.936 11.3323C111.857 11.1821 111.81 11.016 111.738 10.8263H111.754Z" fill="#007DC5"/>
<path d="M89.4016 14.6931C89.4016 13.8866 89.3937 13.0721 89.4016 12.2656C89.4016 11.9176 89.2829 11.7595 88.9188 11.7753C88.5389 11.7911 88.1589 11.7753 87.779 11.7753C87.4308 11.7832 87.3833 11.5776 87.3991 11.3009C87.4149 11.032 87.3358 10.6999 87.7553 10.692C89.2512 10.6841 90.7551 10.692 92.251 10.692C92.6547 10.692 92.6389 10.9846 92.6547 11.2771C92.6626 11.5776 92.5993 11.7911 92.2352 11.7753C91.9107 11.7674 91.5782 11.799 91.2537 11.7753C90.8026 11.7358 90.6443 11.9176 90.6522 12.3684C90.668 13.9024 90.6601 15.4364 90.6522 16.9704C90.6522 17.6268 90.1614 17.9589 89.5837 17.6584C89.4649 17.5951 89.4016 17.35 89.3937 17.1839C89.3779 16.3537 89.3858 15.5313 89.3858 14.701L89.4016 14.6931Z" fill="#007DC5"/>
<path d="M83.94 14.1882C83.94 13.2077 83.9559 12.2272 83.94 11.2467C83.9242 10.7011 84.2408 10.6931 84.6445 10.6852C85.0481 10.6773 85.2935 10.7327 85.2856 11.2308C85.2618 12.8281 85.2856 14.4333 85.2697 16.0306C85.2697 16.4339 85.3885 16.5841 85.8001 16.5683C86.4333 16.5446 87.0744 16.5683 87.7155 16.5604C88.0717 16.5525 88.1667 16.7186 88.135 17.0349C88.1033 17.3195 88.2379 17.6991 87.7234 17.6912C86.6074 17.6912 85.4835 17.6912 84.3674 17.6912C84.0033 17.6912 83.9479 17.4856 83.9479 17.1851C83.9479 16.1888 83.9479 15.1845 83.9479 14.1882H83.94Z" fill="#007DC5"/>
<path d="M75.7709 24.6177C75.7709 25.5982 75.7551 26.5787 75.7709 27.5671C75.7788 28.0653 75.5097 28.1128 75.114 28.1128C74.7182 28.1128 74.457 28.0653 74.457 27.5671C74.4729 25.5824 74.4729 23.6056 74.457 21.6208C74.457 21.1226 74.7182 21.0752 75.114 21.0752C75.5097 21.0752 75.7788 21.1226 75.7709 21.6208C75.7472 22.6171 75.7709 23.6214 75.7709 24.6177Z" fill="#007DC5"/>
<defs>
<linearGradient id="paint0_linear_15809_16031" x1="1.97668" y1="1.08736" x2="1.97668" y2="9.23864" gradientUnits="userSpaceOnUse">
<stop stop-color="#FFC708"/>
<stop offset="0.9997" stop-color="#F05731"/>
<stop offset="1" stop-color="#F05731"/>
</linearGradient>
<linearGradient id="paint1_linear_15809_16031" x1="6.45723" y1="7.35049" x2="4.3256" y2="22.7734" gradientUnits="userSpaceOnUse">
<stop stop-color="#F80000"/>
<stop offset="1" stop-color="#EE3984"/>
</linearGradient>
<linearGradient id="paint2_linear_15809_16031" x1="3.49839" y1="25.5962" x2="14.6584" y2="22.0551" gradientUnits="userSpaceOnUse">
<stop stop-color="#EE3984"/>
<stop offset="0.9997" stop-color="#7800DA"/>
<stop offset="1" stop-color="#7800DA"/>
</linearGradient>
<linearGradient id="paint3_linear_15809_16031" x1="18.6671" y1="11.6291" x2="22.7448" y2="26.0084" gradientUnits="userSpaceOnUse">
<stop stop-color="#FF0000"/>
<stop offset="0.9994" stop-color="#EE3984"/>
<stop offset="1" stop-color="#EE3984"/>
</linearGradient>
<linearGradient id="paint4_linear_15809_16031" x1="10.3336" y1="11.6705" x2="28.3241" y2="11.6705" gradientUnits="userSpaceOnUse">
<stop stop-color="#FFC708"/>
<stop offset="1" stop-color="#FA3B00"/>
</linearGradient>
<linearGradient id="paint5_linear_15809_16031" x1="32.9772" y1="17.0031" x2="45.41" y2="17.0031" gradientUnits="userSpaceOnUse">
<stop stop-color="#FF0000"/>
<stop offset="1" stop-color="#EE3984"/>
</linearGradient>
<linearGradient id="paint6_linear_15809_16031" x1="43.0055" y1="23.0029" x2="32.0601" y2="25.9003" gradientUnits="userSpaceOnUse">
<stop stop-color="#EE3984"/>
<stop offset="1" stop-color="#7800DA"/>
</linearGradient>
<linearGradient id="paint7_linear_15809_16031" x1="34.3348" y1="10.0652" x2="44.7915" y2="10.0652" gradientUnits="userSpaceOnUse">
<stop stop-color="#FFC708"/>
<stop offset="1" stop-color="#F05731"/>
</linearGradient>
<linearGradient id="paint8_linear_15809_16031" x1="20.6283" y1="23.4319" x2="28.2472" y2="10.9842" gradientUnits="userSpaceOnUse">
<stop stop-color="#EE3984"/>
<stop offset="1" stop-color="#7800DA"/>
</linearGradient>
</defs>
</svg>
