<svg width="117" height="28" viewBox="0 0 117 28" fill="none" xmlns="http://www.w3.org/2000/svg">
<g clip-path="url(#clip0_15490_14289)">
<path d="M34.0821 14.8267C33.9634 15.1825 33.8288 15.5225 33.7259 15.8784C33.1323 17.8947 32.4912 19.8874 31.486 21.7456C30.1879 24.1337 28.4625 26.1105 25.8822 27.1464C25.0273 27.4943 24.1092 27.7473 23.199 27.8422C20.7057 28.1111 18.2521 27.8738 15.9884 26.7352C14.9832 26.2291 14.0967 25.4937 13.0994 24.8216C13.0519 24.869 12.9411 24.9877 12.8461 25.1221C11.6193 26.8064 9.92545 27.6683 7.89129 27.858C6.1104 28.0241 4.38493 27.8106 2.80192 26.8775C1.25849 25.9682 0.490732 24.5528 0.174131 22.8685C0.0316601 22.0777 0.0158301 21.2554 0.0158301 20.4488C0 14.3918 0 8.33473 0 2.27769C0 1.4316 0.213706 0.680399 1.02104 0.277123C2.29536 -0.363374 3.8942 0.324567 3.9496 1.78743C3.99709 3.06052 3.98918 4.34151 3.98126 5.6146C3.98126 6.01787 4.1079 6.16021 4.51157 6.1523C5.92836 6.13649 7.34515 6.11276 8.76194 6.16021C9.18144 6.17602 9.63259 6.34208 10.0125 6.54767C10.6457 6.89559 10.7249 7.52818 10.5903 8.17659C10.4874 8.70638 9.87796 9.23617 9.28433 9.27571C8.477 9.32316 7.66175 9.31525 6.85442 9.31525C6.09457 9.31525 5.33473 9.33897 4.57489 9.31525C4.11582 9.29943 3.98126 9.48921 3.98126 9.92412C3.99709 11.4581 3.98126 12.9922 3.98126 14.5341C3.98126 16.5663 3.94169 18.6064 4.00501 20.6386C4.02875 21.4135 4.17122 22.2359 4.48782 22.9317C5.02604 24.1099 6.14206 24.5053 7.36889 24.4895C9.18935 24.4737 10.3608 23.4378 11.1602 21.8959C11.2156 21.7931 11.1919 21.627 11.1523 21.5084C9.97294 18.3613 10.0125 15.2141 11.2948 12.1382C12.4424 9.37851 14.5162 7.49655 17.3814 6.55558C20.6424 5.48808 23.8401 5.74902 26.9665 7.06955C27.3623 7.23561 27.7184 7.5519 28.0113 7.87611C28.4387 8.35846 28.4783 8.9436 28.1617 9.51293C27.8847 10.0269 27.4493 10.4065 26.8399 10.359C26.27 10.3116 25.6764 10.2088 25.1461 9.99528C23.0248 9.14129 20.8719 8.88034 18.6953 9.70271C16.7403 10.446 15.4818 11.8931 14.809 13.862C14.1837 15.6965 14.1521 17.5626 14.6349 19.413C15.2839 21.8959 17.0252 23.7383 19.6768 24.3551C21.2202 24.7188 22.7636 24.6951 24.2754 24.2127C26.2383 23.5881 27.5681 22.2043 28.5891 20.4805C29.6418 18.7013 30.2196 16.7324 30.8053 14.7713C31.4227 12.7233 32.0875 10.7069 33.3065 8.91197C34.4462 7.2198 36.0134 6.22347 38.0238 5.97834C39.9551 5.74902 41.8389 5.97834 43.6277 6.81652C44.2134 7.09328 44.6724 7.48865 44.7832 8.17659C44.9732 9.30734 43.8651 10.1772 42.6778 9.83713C41.9338 9.62364 41.2136 9.28362 40.4537 9.17292C39.7255 9.06221 38.9261 9.02268 38.2217 9.21245C36.4566 9.67108 36.2429 11.553 37.3827 12.7787C37.9288 13.3638 38.5937 13.8462 39.2506 14.3127C40.4062 15.1509 41.6172 15.9179 42.7649 16.7719C43.9047 17.618 44.8228 18.6855 45.179 20.093C45.8597 22.7341 45.0524 25.5886 42.3217 27.0119C40.4062 28.0083 38.3642 28.1585 36.2825 27.7315C35.396 27.5496 34.5254 27.2729 33.6626 26.9961C33.346 26.8933 33.0373 26.6957 32.7761 26.4901C32.1904 26.0156 32.0638 25.3593 32.3646 24.6239C32.5941 24.0704 33.1956 23.7067 33.9001 23.849C34.6758 23.9992 35.4277 24.2602 36.1875 24.4658C37.4539 24.8058 38.7203 24.9877 39.9788 24.4104C41.7439 23.596 42.2188 21.3345 40.8099 19.9823C39.9472 19.152 38.9182 18.4957 37.9288 17.8078C36.6545 16.9221 35.3248 16.1156 34.3037 14.9216C34.2721 14.8899 34.2088 14.8899 34.098 14.8425L34.0821 14.8267Z" fill="#6B7280" fill-opacity="0.7"/>
<path d="M74.963 3.02043C74.583 4.14327 74.2664 5.11588 73.9261 6.08058C73.5303 7.19552 73.8074 7.02155 72.6359 7.03737C72.0898 7.03737 71.5437 7.03737 70.8867 7.03737C71.0371 6.59456 71.1479 6.23873 71.2746 5.89871C71.979 4.07211 72.6993 2.25341 73.38 0.426808C73.5066 0.102606 73.6886 0.015625 73.9973 0.015625C74.6701 0.015625 75.3429 0.0235324 76.0157 0.015625C76.356 0.015625 76.5222 0.142143 76.6489 0.474253C77.4087 2.49854 78.2002 4.51492 78.9838 6.5313C79.1184 6.87132 79.0629 7.05318 78.6435 7.04528C78.0261 7.02946 77.4008 7.06109 76.7834 7.02155C76.6172 7.01365 76.3718 6.83969 76.3164 6.68945C75.9365 5.66149 75.5962 4.60981 75.2321 3.57394C75.1846 3.43161 75.0975 3.29718 74.9709 3.02043H74.963Z" fill="#6B7280" fill-opacity="0.7"/>
<path d="M61.3578 3.00482C60.9146 4.31745 60.5346 5.48774 60.1231 6.65012C60.0756 6.79245 59.9252 7.00595 59.8065 7.00595C58.9912 7.03758 58.168 7.02177 57.2578 7.02177C57.5902 6.11242 57.8831 5.29005 58.1918 4.4835C58.6825 3.20251 59.1891 1.92942 59.664 0.64052C59.8302 0.197707 60.0439 -0.039514 60.5663 0.00793023C61.1678 0.0553745 61.7694 0.0316523 62.3788 0.00793023C62.7192 0.00793023 62.9171 0.134448 63.0358 0.45865C63.8194 2.53038 64.6188 4.59421 65.4182 6.65803C65.529 6.93479 65.4182 7.03758 65.1412 7.03758C64.4684 7.03758 63.7956 7.07712 63.1229 7.01386C62.9329 6.99805 62.6954 6.70547 62.6163 6.49197C62.2522 5.51146 61.9435 4.50722 61.6032 3.5188C61.5557 3.37647 61.4765 3.24995 61.3499 3.00482H61.3578Z" fill="#6B7280" fill-opacity="0.7"/>
<path d="M68.22 0.0159342C69.154 0.0159342 70.08 0.0238415 71.014 0.0159342C71.4097 0.0159342 71.5839 0.158267 71.568 0.561543C71.5522 0.925282 71.568 1.28902 71.568 1.64485C71.568 1.94533 71.4256 2.08767 71.1248 2.07976C70.8873 2.07976 70.642 2.07976 70.3966 2.07976C69.8742 2.07976 69.613 2.33279 69.613 2.83887C69.613 4.04869 69.5972 5.25061 69.613 6.46044C69.6209 6.91116 69.4706 7.07722 69.0115 7.05349C68.4258 7.02186 67.8401 7.02977 67.2543 7.05349C66.8903 7.06931 66.7715 6.93488 66.7794 6.57905C66.7953 5.26643 66.7794 3.96171 66.7953 2.64909C66.7953 2.23791 66.6924 2.07185 66.2491 2.07185C64.7928 2.07185 64.8165 2.06394 64.8086 0.608987C64.8086 0.150359 64.9827 0.0080268 65.4181 0.0159342C66.352 0.0317489 67.2781 0.0159342 68.2121 0.0159342H68.22Z" fill="#6B7280" fill-opacity="0.7"/>
<path d="M54.6302 0.015625C55.5642 0.015625 56.4903 0.0235324 57.4242 0.015625C57.7962 0.015625 57.9704 0.134236 57.9466 0.521697C57.9229 0.885436 57.9308 1.24917 57.9466 1.60501C57.9625 1.96875 57.7962 2.10317 57.448 2.07945C57.2105 2.06363 56.9652 2.07945 56.7198 2.07945C56.2132 2.07945 55.96 2.32458 55.96 2.81483C55.96 4.04048 55.9441 5.26612 55.96 6.48385C55.96 6.89504 55.8571 7.07691 55.4059 7.05318C54.836 7.02156 54.2661 7.02156 53.6963 7.05318C53.2768 7.07691 53.166 6.90294 53.166 6.50758C53.1818 5.2503 53.1501 3.99303 53.1818 2.73576C53.1897 2.25341 53.0551 2.06363 52.5407 2.07154C51.2109 2.08736 51.2109 2.07154 51.2109 0.743103C51.2109 0.263389 51.4457 0.0235324 51.9154 0.0235324C52.8098 0.0235324 53.7121 0.0235324 54.6065 0.0235324L54.6302 0.015625Z" fill="#6B7280" fill-opacity="0.7"/>
<path d="M68.9868 15.4039C68.9868 15.1509 68.9868 14.969 68.9868 14.795C68.971 13.5536 68.9631 12.3121 68.9235 11.0707C68.9077 10.6041 69.0739 10.4381 69.5567 10.4381C70.0632 10.4381 70.1582 10.6516 70.1503 11.0944C70.1345 12.9763 70.1503 14.8504 70.1345 16.7323C70.1345 16.9696 70.0474 17.3333 69.8891 17.4124C69.4696 17.6259 68.7968 17.444 68.6227 17.1514C67.7837 15.7123 66.9606 14.2652 66.1295 12.8182C66.0266 12.6442 65.9316 12.4703 65.7654 12.1777C65.7654 12.4624 65.7654 12.6284 65.7654 12.7866C65.7733 14.1862 65.7812 15.5779 65.797 16.9775C65.805 17.5231 65.4329 17.444 65.0926 17.4677C64.7127 17.4914 64.5781 17.3412 64.5781 16.9617C64.594 14.9611 64.594 12.9605 64.5781 10.96C64.5781 10.5725 64.7443 10.4855 65.1005 10.446C65.805 10.3669 66.2324 10.612 66.5806 11.2525C67.3246 12.6363 68.1478 13.9727 68.9868 15.4118V15.4039Z" fill="#6B7280" fill-opacity="0.7"/>
<path d="M100.22 12.2799C100.22 13.8455 100.22 15.2847 100.22 16.7317C100.22 17.4117 99.8795 17.6569 99.2463 17.4276C99.1434 17.388 99.0326 17.1982 99.0326 17.0796C99.0167 14.9921 99.0247 12.9124 99.0326 10.8249C99.0326 10.7221 99.088 10.5798 99.1671 10.5165C99.5075 10.2635 100.552 10.4928 100.774 10.8802C101.597 12.3036 102.412 13.7427 103.235 15.1739C103.267 15.2293 103.299 15.2847 103.386 15.4349C103.41 15.1977 103.433 15.0712 103.433 14.9446C103.417 13.6557 103.41 12.3589 103.37 11.07C103.354 10.5956 103.528 10.4374 104.003 10.4374C104.462 10.4374 104.597 10.6035 104.589 11.0463C104.573 12.9441 104.589 14.8339 104.573 16.7317C104.573 16.9689 104.431 17.388 104.328 17.3959C103.9 17.4355 103.37 17.6569 103.061 17.1271C102.214 15.6721 101.383 14.2092 100.544 12.7543C100.465 12.6199 100.378 12.5013 100.228 12.2799H100.22Z" fill="#6B7280" fill-opacity="0.7"/>
<path d="M56.918 13.996C56.9813 12.2485 57.757 11.0466 59.2292 10.5089C61.105 9.82094 63.155 10.9912 63.4558 12.9602C63.6299 14.0988 63.5903 15.2296 62.8622 16.2259C62.0311 17.3725 60.8834 17.665 59.5774 17.4674C58.3981 17.2855 57.6303 16.558 57.2425 15.4431C57.0842 14.9765 57.0209 14.4784 56.918 13.996ZM62.2131 13.9328C62.1102 13.4979 62.0548 13.0471 61.8965 12.636C61.6353 11.9243 61.1446 11.4499 60.3373 11.4103C59.5537 11.3629 59.0075 11.7582 58.6909 12.4304C58.216 13.4109 58.216 14.4309 58.6672 15.4273C58.9838 16.131 59.5616 16.5264 60.3531 16.4789C61.1367 16.4394 61.667 15.9966 61.9124 15.2533C62.0469 14.8342 62.1181 14.3914 62.229 13.9328H62.2131Z" fill="#6B7280" fill-opacity="0.7"/>
<path d="M65.7262 24.5362C66.6681 25.3507 66.5889 26.521 66.9767 27.5173C67.0084 27.5964 66.9767 27.7387 66.9134 27.7941C66.6997 28.0155 65.7578 27.8178 65.6549 27.5252C65.4966 27.0349 65.37 26.5368 65.2433 26.0386C65.0376 25.24 64.7051 24.9948 63.882 25.0107C63.5654 25.0107 63.4546 25.1214 63.4625 25.4377C63.4783 26.0781 63.4466 26.7107 63.4783 27.3512C63.502 27.8257 63.2488 27.8889 62.8688 27.8731C62.4968 27.8573 62.1407 27.9048 62.1486 27.3354C62.1644 25.3665 62.1644 23.4055 62.1486 21.4365C62.1486 21.136 62.2594 21.0016 62.5522 20.9542C63.5654 20.7881 64.5785 20.7723 65.5758 21.057C66.2011 21.2388 66.6364 21.6737 66.7789 22.2984C66.9372 23.0022 66.8105 23.6743 66.209 24.1725C66.0823 24.2832 65.9399 24.3781 65.7262 24.5362ZM63.4704 22.9231C63.4704 23.0813 63.4704 23.2315 63.4704 23.3896C63.4704 24.0934 63.4941 24.1171 64.2065 24.046C64.4598 24.0222 64.7447 23.9827 64.9426 23.8483C65.1642 23.698 65.3858 23.4529 65.465 23.1999C65.5837 22.7966 65.5679 22.2826 65.1246 22.1166C64.6655 21.9426 64.1352 21.9347 63.6366 21.9584C63.5654 21.9584 63.5258 22.5594 63.4704 22.8836C63.4704 22.8994 63.4704 22.9152 63.4704 22.9389V22.9231Z" fill="#6B7280" fill-opacity="0.7"/>
<path d="M81.0184 12.9758C81.0184 12.2879 81.0342 11.6 81.0184 10.912C81.0025 10.3822 81.3666 10.4613 81.6911 10.4534C82.0157 10.4534 82.3718 10.3822 82.3639 10.912C82.3481 12.2246 82.4114 13.5373 82.3402 14.842C82.1819 17.6096 79.7599 17.9575 78.1373 17.2063C77.4962 16.9137 77.0767 16.3207 77.0371 15.6169C76.9421 14.0354 76.9184 12.454 76.8946 10.8725C76.8867 10.3269 77.3458 10.485 77.6624 10.4534C78.0265 10.4139 78.2006 10.5641 78.2006 10.9516C78.1927 12.106 78.1927 13.2605 78.2006 14.415C78.2006 14.7076 78.2323 15.0001 78.2956 15.2848C78.4935 16.1388 78.9763 16.5421 79.7203 16.4867C80.4327 16.4393 80.9471 15.8699 81.0184 15.0476C81.0184 15.0159 81.0184 14.9764 81.0184 14.9448C81.0184 14.2885 81.0184 13.6322 81.0184 12.9837V12.9758Z" fill="#6B7280" fill-opacity="0.7"/>
<path d="M98.0664 17.4436C97.6548 17.4436 97.3066 17.4752 96.9821 17.4278C96.8396 17.4041 96.6892 17.2301 96.5942 17.0799C96.4992 16.9217 96.4755 16.724 96.4043 16.5501C96.2618 16.1942 96.1668 15.5854 95.9531 15.5379C95.3516 15.3956 94.6867 15.4668 94.0535 15.5063C93.9506 15.5063 93.8319 15.7435 93.7686 15.8938C93.6736 16.131 93.634 16.3919 93.5548 16.6371C93.2382 17.5385 93.1433 17.5859 92.0352 17.3724C92.1381 17.0008 92.233 16.6291 92.3518 16.2654C92.9296 14.4704 93.5153 12.6755 94.0852 10.8726C94.188 10.5484 94.3701 10.4535 94.6867 10.4456C95.7869 10.4219 95.8027 10.406 96.2222 11.6396C96.8317 13.4425 97.4095 15.2612 98.0031 17.072C98.0268 17.151 98.0347 17.238 98.0822 17.4436H98.0664ZM95.8423 14.4942C95.5415 13.5374 95.2803 12.6913 95.0112 11.8452C94.8133 12.1298 94.7579 12.3908 94.6867 12.6517C94.6075 12.9127 94.5126 13.1736 94.4255 13.4346C94.1828 14.1462 94.4413 14.5021 95.2012 14.5021C95.3674 14.5021 95.5415 14.5021 95.8502 14.5021L95.8423 14.4942Z" fill="#6B7280" fill-opacity="0.7"/>
<path d="M83.0137 24.3387C83.0137 23.3582 83.0216 22.3697 83.0137 21.3892C83.0137 21.0018 83.1245 20.8278 83.544 20.8357C84.5413 20.8594 85.5465 20.8594 86.5438 20.8357C87.0187 20.8199 87.0662 21.0571 87.082 21.4446C87.0978 21.8478 86.9395 21.9506 86.5675 21.9348C85.9818 21.9111 85.3961 21.9348 84.8104 21.919C84.4938 21.9111 84.3513 21.9823 84.3434 22.346C84.3197 23.6824 84.3038 23.6824 85.6573 23.6824C85.9027 23.6824 86.1401 23.6903 86.3855 23.6824C86.7654 23.6586 87.0108 23.7298 86.9949 24.2042C86.987 24.6629 86.7971 24.8052 86.3617 24.7894C85.8473 24.7657 85.3249 24.7894 84.8104 24.7815C84.4859 24.7736 84.3276 24.8606 84.3513 25.2164C84.3751 25.5959 84.3671 25.9755 84.3513 26.3551C84.3355 26.6713 84.4621 26.782 84.7787 26.7741C85.4515 26.7583 86.1243 26.79 86.7971 26.7583C87.2245 26.7425 87.272 26.9481 87.264 27.296C87.264 27.644 87.2324 27.8891 86.7733 27.8812C85.689 27.8574 84.5967 27.8574 83.5123 27.8812C83.1087 27.8812 83.0137 27.7072 83.0137 27.3514C83.0295 26.3551 83.0137 25.3508 83.0137 24.3466V24.3387Z" fill="#6B7280" fill-opacity="0.7"/>
<path d="M56.8449 24.347C56.8449 23.3665 56.8528 22.378 56.8449 21.3975C56.8449 21.0022 56.9873 20.8361 57.391 20.844C58.3883 20.8598 59.3935 20.8598 60.3908 20.844C60.8499 20.8361 60.929 21.0654 60.9369 21.4529C60.9448 21.872 60.7311 21.9352 60.3908 21.9273C59.7734 21.9115 59.1481 21.9273 58.5229 21.9273C58.2696 21.9273 58.1667 22.0064 58.1429 22.2832C58.0479 23.6907 58.04 23.6907 59.4489 23.6907C59.6943 23.6907 59.9317 23.6907 60.1771 23.6907C60.7865 23.6907 60.8103 23.7302 60.8024 24.3391C60.8024 24.6712 60.6678 24.7977 60.3354 24.7977C59.7497 24.7819 59.164 24.7977 58.5783 24.7977C58.2696 24.7977 58.1429 24.9084 58.1588 25.2247C58.1746 25.6043 58.1746 25.9838 58.1588 26.3634C58.1508 26.6797 58.2775 26.7904 58.5862 26.7825C59.2431 26.7666 59.9001 26.7983 60.557 26.7745C60.9686 26.7587 61.0952 26.909 61.0873 27.3122C61.0873 27.7155 60.9844 27.9053 60.5254 27.8974C59.5043 27.8658 58.4912 27.8737 57.4701 27.8974C57.0032 27.9053 56.8132 27.7472 56.829 27.2727C56.8528 26.308 56.829 25.3433 56.829 24.3786L56.8449 24.347Z" fill="#6B7280" fill-opacity="0.7"/>
<path d="M70.4747 26.2602C70.8071 25.169 71.1237 24.1094 71.4561 23.0498C71.654 22.4093 71.8677 21.7767 72.0893 21.1442C72.1843 20.8674 73.237 20.6934 73.3953 20.9386C73.4586 21.0335 73.4428 21.2074 73.3953 21.326C72.6988 23.3582 71.9706 25.3746 71.2899 27.4068C71.0604 28.0868 70.5459 27.7943 70.1343 27.8575C69.7386 27.9208 69.5882 27.6677 69.4853 27.3435C68.8363 25.3351 68.1872 23.3266 67.5382 21.3102C67.4353 20.986 67.4986 20.8358 67.8785 20.8279C68.8283 20.8041 68.8125 20.7962 69.0658 21.7056C69.4853 23.1764 69.9285 24.6392 70.3639 26.11C70.3797 26.1495 70.4193 26.1891 70.4747 26.2523V26.2602Z" fill="#6B7280" fill-opacity="0.7"/>
<path d="M89.8909 27.9997C89.4081 27.8969 88.9174 27.7941 88.4346 27.6834C87.8805 27.5569 88.1021 27.1694 88.1813 26.861C88.2683 26.4973 88.49 26.5447 88.8145 26.6159C89.3527 26.7345 89.9384 26.8136 90.4845 26.7582C90.7457 26.7345 91.1177 26.3945 91.1811 26.1336C91.2444 25.8726 91.0703 25.4298 90.8486 25.2558C90.4687 24.9633 89.9463 24.8526 89.5347 24.5916C89.1073 24.3228 88.6324 24.0223 88.3791 23.6111C87.7064 22.5278 88.3871 21.144 89.7722 20.8752C90.4529 20.7407 91.2048 20.8831 91.9093 20.9859C92.4554 21.0649 92.1546 21.4919 92.1071 21.7766C92.0517 22.1008 91.8459 22.0613 91.561 22.0059C91.0782 21.9189 90.5716 21.8794 90.0888 21.9426C89.8672 21.9743 89.5585 22.2827 89.5189 22.5041C89.4793 22.7492 89.6376 23.1367 89.8355 23.279C90.2313 23.5637 90.722 23.7218 91.1652 23.9353C91.9172 24.2911 92.5108 24.7972 92.5662 25.6907C92.6453 26.8373 91.7905 27.7783 90.5716 27.9048C90.35 27.9285 90.1205 27.9285 89.8988 27.9443C89.8988 27.9681 89.8909 27.9839 89.883 28.0076L89.8909 27.9997Z" fill="#6B7280" fill-opacity="0.7"/>
<path d="M51.4957 26.5847C52.1764 26.6716 52.7858 26.814 53.3953 26.8061C54.258 26.7903 54.725 26.047 54.2659 25.4618C54.0285 25.1613 53.6011 25.0032 53.2449 24.8055C52.8333 24.5683 52.3742 24.3943 51.9943 24.1097C51.0445 23.4138 51.0604 21.7849 52.3584 21.089C53.2607 20.6067 54.2184 20.6541 55.1682 20.9625C55.7302 21.1444 55.3186 21.4923 55.287 21.7612C55.2474 22.0696 55.0812 22.0537 54.8042 21.9984C54.3213 21.9114 53.8069 21.8402 53.332 21.9193C53.0787 21.9589 52.77 22.2831 52.6908 22.544C52.6354 22.7417 52.8412 23.1133 53.0391 23.2636C53.3874 23.5245 53.8148 23.6985 54.2343 23.8566C55.3345 24.2757 55.8727 25.0744 55.7381 26.1498C55.6273 27.067 54.7725 27.8419 53.7119 27.8894C53.1024 27.921 52.4692 27.8657 51.8756 27.7391C51.1949 27.5889 51.187 27.5019 51.4165 26.8456C51.4482 26.7507 51.4878 26.6558 51.5115 26.5847H51.4957Z" fill="#6B7280" fill-opacity="0.7"/>
<path d="M71.5367 16.1078C71.9878 16.2105 72.4152 16.3213 72.8506 16.3845C73.088 16.424 73.3334 16.4082 73.5708 16.3845C74.0299 16.3529 74.3544 16.1394 74.4415 15.657C74.5286 15.1668 74.2594 14.8584 73.8716 14.6607C73.3888 14.4077 72.8664 14.2179 72.3836 13.9569C71.3625 13.4113 71.0697 12.2252 71.7108 11.2684C72.0432 10.7703 72.5656 10.4619 73.1276 10.4144C73.7845 10.3591 74.4573 10.4698 75.1143 10.5331C75.5654 10.5805 75.51 10.8889 75.3834 11.1815C75.2726 11.4345 75.2963 11.7903 74.7739 11.5926C74.3465 11.4266 73.8241 11.4345 73.3571 11.5057C73.1197 11.5452 72.8031 11.8536 72.7477 12.0908C72.7002 12.3201 72.8743 12.7076 73.0801 12.8578C73.4284 13.1188 73.8637 13.2769 74.2753 13.4351C75.6604 13.9728 76.2224 15.4198 75.4388 16.5585C74.9955 17.199 74.3149 17.4757 73.5629 17.4757C72.9693 17.4757 72.3757 17.3729 71.782 17.286C71.3071 17.2148 71.1805 16.9459 71.41 16.511C71.4734 16.3924 71.4971 16.258 71.5446 16.0919L71.5367 16.1078Z" fill="#6B7280" fill-opacity="0.7"/>
<path d="M80.2347 27.9685C78.3114 27.9448 77.1162 27.0513 76.6888 25.28C76.2851 23.6115 77.0529 21.8719 78.5409 21.1286C79.4749 20.6621 80.4722 20.6858 81.4695 20.8519C81.8256 20.9151 82.0394 21.0812 81.9285 21.5398C81.8256 21.9431 81.6436 21.9668 81.2716 21.9431C80.6463 21.9036 79.9656 21.8403 79.3957 22.038C78.3351 22.3938 77.7969 23.6195 78.0106 24.7977C78.3114 26.4187 79.4195 27.0908 81.2637 26.735C81.5565 26.6796 81.8098 26.5847 81.889 27.0038C81.9602 27.3596 82.0235 27.7076 81.509 27.7787C81.0816 27.8341 80.6621 27.9052 80.2347 27.9685Z" fill="#6B7280" fill-opacity="0.7"/>
<path d="M56.2678 11.6159C55.0885 11.3629 53.9091 11.1968 53.0702 12.3197C52.3895 13.229 52.3974 14.6365 53.0464 15.5301C53.8854 16.6925 55.0885 16.4315 56.2599 16.2655C56.7902 16.9692 56.6557 17.3488 55.8008 17.4516C54.8194 17.5702 53.8221 17.6176 52.9198 17.1195C51.3368 16.2338 50.9568 14.684 51.3209 13.063C51.8512 10.6829 53.9883 10.074 55.9829 10.4298C56.7032 10.5563 56.7665 10.9043 56.2599 11.6159H56.2678Z" fill="#6B7280" fill-opacity="0.7"/>
<path d="M110.723 11.6238C109.504 11.3787 108.277 11.1731 107.462 12.3592C106.805 13.3081 106.773 14.4151 107.359 15.3956C108.15 16.7003 109.448 16.471 110.691 16.2733C110.723 16.305 110.754 16.3287 110.77 16.3603C111.118 17.1748 110.992 17.3883 110.113 17.4832C108.942 17.6097 107.794 17.5939 106.82 16.7952C106.148 16.2496 105.768 15.53 105.673 14.6681C105.507 13.1657 105.831 11.861 107.169 10.9596C108.166 10.2954 109.274 10.2479 110.398 10.4377C111.063 10.5484 111.103 10.6828 110.865 11.3154C110.825 11.4261 110.762 11.5289 110.715 11.6317L110.723 11.6238Z" fill="#6B7280" fill-opacity="0.7"/>
<path d="M111.539 10.588C112.481 10.24 112.885 10.3982 113.233 11.181C113.558 11.9006 113.898 12.6044 114.278 13.4188C114.405 13.2448 114.499 13.1421 114.555 13.0234C114.879 12.3197 115.188 11.6159 115.513 10.9122C115.703 10.4931 116.565 10.2321 116.937 10.501C117.009 10.5563 117.009 10.8173 116.937 10.928C116.447 11.8373 115.964 12.7546 115.402 13.6165C115.038 14.1858 114.871 14.7552 114.911 15.4194C114.943 15.9334 114.911 16.4552 114.911 16.9692C114.927 17.5227 114.539 17.4358 114.199 17.4516C113.85 17.4674 113.573 17.4358 113.605 16.9771C113.629 16.6687 113.573 16.3524 113.613 16.0441C113.74 14.9607 113.415 14.0277 112.845 13.1262C112.426 12.4778 112.085 11.7741 111.721 11.094C111.642 10.9438 111.595 10.7777 111.523 10.588H111.539Z" fill="#6B7280" fill-opacity="0.7"/>
<path d="M89.1868 14.4548C89.1868 13.6483 89.1788 12.8338 89.1868 12.0273C89.1868 11.6794 89.068 11.5212 88.7039 11.537C88.324 11.5528 87.9441 11.537 87.5642 11.537C87.2159 11.5449 87.1684 11.3393 87.1843 11.0626C87.2001 10.7937 87.1209 10.4616 87.5404 10.4537C89.0364 10.4458 90.5402 10.4537 92.0362 10.4537C92.4398 10.4537 92.424 10.7463 92.4398 11.0389C92.4478 11.3393 92.3844 11.5528 92.0203 11.537C91.6958 11.5291 91.3634 11.5607 91.0389 11.537C90.5877 11.4975 90.4294 11.6794 90.4373 12.1301C90.4532 13.6641 90.4453 15.1981 90.4373 16.7322C90.4373 17.3885 89.9466 17.7206 89.3688 17.4201C89.2501 17.3568 89.1868 17.1117 89.1788 16.9457C89.163 16.1154 89.1709 15.293 89.1709 14.4627L89.1868 14.4548Z" fill="#6B7280" fill-opacity="0.7"/>
<path d="M83.7252 13.9489C83.7252 12.9684 83.741 11.9879 83.7252 11.0074C83.7093 10.4618 84.0259 10.4539 84.4296 10.446C84.8333 10.4381 85.0787 10.4934 85.0707 10.9916C85.047 12.5889 85.0707 14.1941 85.0549 15.7914C85.0549 16.1946 85.1736 16.3449 85.5852 16.3291C86.2184 16.3053 86.8595 16.3291 87.5007 16.3212C87.8568 16.3132 87.9518 16.4793 87.9201 16.7956C87.8885 17.0803 88.023 17.4598 87.5086 17.4519C86.3925 17.4519 85.2686 17.4519 84.1526 17.4519C83.7885 17.4519 83.7331 17.2463 83.7331 16.9458C83.7331 15.9495 83.7331 14.9453 83.7331 13.9489H83.7252Z" fill="#6B7280" fill-opacity="0.7"/>
<path d="M75.5561 24.3784C75.5561 25.359 75.5402 26.3395 75.5561 27.3279C75.564 27.8261 75.2949 27.8735 74.8991 27.8735C74.5034 27.8735 74.2422 27.8261 74.2422 27.3279C74.258 25.3431 74.258 23.3663 74.2422 21.3815C74.2422 20.8834 74.5034 20.8359 74.8991 20.8359C75.2949 20.8359 75.564 20.8834 75.5561 21.3815C75.5323 22.3779 75.5561 23.3821 75.5561 24.3784Z" fill="#6B7280" fill-opacity="0.7"/>
</g>
<defs>
<clipPath id="clip0_15490_14289">
<rect width="117" height="28" fill="white"/>
</clipPath>
</defs>
</svg>
